<svg width="512" height="512" xmlns="http://www.w3.org/2000/svg" version="1.1">
 <g>
  <title>Layer 1</title>
  <path d="m256.78213,12.73716c53.39056,-0.83869 110.86842,18.35204 151.21085,53.58531c1.54482,1.25123 3.08964,2.50247 4.6813,3.79162c47.72779,38.74642 79.4217,96.45777 86.36525,157.65361c5.84927,62.17133 -7.97775,127.08421 -47.86506,176.39299c-44.30846,53.22603 -100.88159,86.06036 -170.05434,94.75234c-73.73139,3.46305 -139.57146,-16.84315 -195.00476,-66.75259c-5.78192,-5.38656 -10.89974,-11.24618 -15.94047,-17.31978c-1.29852,-1.5133 -2.59704,-3.02661 -3.93491,-4.58577c-42.35743,-50.56499 -58.44329,-115.40345 -53.78721,-180.38539c6.3284,-57.14748 33.26916,-106.25098 73.008,-146.73256c0.91934,-0.93843 1.83868,-1.87685 2.78587,-2.84371c44.71004,-45.22036 106.05279,-65.88978 168.53548,-67.55608l0,0.00001zm-101.00627,38.29943c-2.56847,1.25025 -2.56847,1.25025 -5.18884,2.52575c-54.83659,28.18084 -94.9919,77.29062 -114.33289,135.53834c-5.99759,19.85681 -9.22788,40.77622 -8.97525,61.51225c0.00691,1.10444 0.0138,2.20887 0.02091,3.34677c0.0177,2.6741 0.04511,5.34812 0.07463,8.02211c4.73551,-2.10465 7.93035,-4.50845 11.55676,-8.19366c1.05204,-1.06107 2.10406,-2.12215 3.18796,-3.21539c1.13806,-1.16347 2.27614,-2.32694 3.44869,-3.52566c1.21118,-1.22545 2.42235,-2.45092 3.67022,-3.71351c2.62881,-2.66091 5.25429,-5.3251 7.87683,-7.99216c4.14769,-4.2149 8.30733,-8.41765 12.47096,-12.61677c11.83679,-11.93962 23.66136,-23.89112 35.45364,-35.87469c7.21182,-7.32853 14.44744,-14.63283 21.69694,-21.9241c2.76262,-2.7873 5.51671,-5.58309 8.26217,-8.3873c3.83188,-3.91247 7.69094,-7.796 11.5576,-11.67403c1.13498,-1.17275 2.26995,-2.34551 3.43932,-3.5538c1.5845,-1.57221 1.5845,-1.57221 3.20102,-3.17621c0.90934,-0.92177 1.8187,-1.84354 2.75559,-2.79324c2.88092,-1.76092 2.88092,-1.76092 6.83988,-1.46025c4.8481,1.61593 7.09065,4.05959 10.5686,7.78412c1.25814,1.31232 2.51626,2.62463 3.81251,3.97671c2.62208,2.79583 5.24138,5.59428 7.85791,8.3953c1.25615,1.30838 2.51231,2.61676 3.80654,3.96478c1.13609,1.21503 2.27217,2.43006 3.44269,3.6819c2.97107,2.78839 2.97107,2.78839 6.33789,2.43619c3.74076,-1.85649 6.10793,-4.07164 9.02823,-7.06151c1.11822,-1.13301 2.23645,-2.26601 3.38858,-3.43335c1.15369,-1.19212 2.30739,-2.38423 3.49603,-3.61248c1.14779,-1.16847 2.29557,-2.33695 3.47815,-3.54084c3.21126,-3.27057 6.41145,-6.55168 9.61039,-9.83431c4.92121,-4.99876 9.95574,-9.7582 15.19035,-14.42605c6.66815,-5.96688 12.98301,-12.22889 19.20291,-18.65953c1.50655,-1.54689 3.01337,-3.09351 4.52045,-4.63988c2.28046,-2.34087 4.55119,-4.68829 6.79762,-7.06183c2.12786,-2.24754 4.28635,-4.46595 6.4458,-6.68316c1.2521,-1.30985 2.50419,-2.6197 3.79423,-3.96924c3.66361,-2.64667 3.66361,-2.64667 7.77804,-2.49889c4.87378,1.90725 6.4729,4.85752 9.64287,9.02375c1.76586,1.59591 3.56756,3.15253 5.39185,4.6813c9.07778,7.82734 17.29486,16.51035 25.6158,25.12617c1.23547,1.25714 2.47095,2.51428 3.74385,3.80953c1.1069,1.14063 2.21379,2.28128 3.35424,3.45649c3.26948,2.75695 5.07125,3.74487 9.2805,4.19839c1.48177,-0.34681 2.96354,-0.6936 4.49023,-1.0509c4.6813,-0.47768 4.6813,-0.47768 8.78938,2.10181c3.07071,3.07072 5.52617,6.18994 8.12063,9.64922c1.00885,0 2.01772,0 3.05718,0c0.58817,1.34187 0.58817,1.34187 1.18823,2.71086c2.02552,3.68864 4.32001,6.00636 7.31454,8.94463c4.43274,4.87693 5.84667,7.74849 6.01882,14.33052c0.18441,5.99791 1.05806,8.82508 5.15226,13.21579c1.46449,1.58085 1.46449,1.58085 2.95857,3.19363c6.44315,6.6519 12.94484,13.23898 19.51124,19.76916c1.54322,1.54036 3.08608,3.08105 4.62863,4.62208c4.02939,4.0236 8.06334,8.04258 12.09834,12.06056c4.09824,4.08255 8.19212,8.16947 12.28637,12.25604c7.20574,7.1912 14.41523,14.37861 21.62756,21.5632c3.72357,3.71267 7.44215,7.43027 11.15948,11.14919c0.91428,0.91428 1.82856,1.82857 2.77057,2.77057c0.59901,0.59901 1.19802,1.19803 1.8152,1.8152c1.5133,-0.50443 3.02659,-1.00887 4.58577,-1.52859c2.28984,-63.73425 -22.09179,-122.31244 -64.76275,-168.89858c-38.10594,-40.83858 -94.35063,-67.27228 -150.22189,-69.73962c-40.58588,-1.37151 -78.59949,5.27433 -115.1905,23.10721l-0.00003,0.00001z" fill="#0F110F" id="svg_1" stroke="null"/>
  <path d="m292.5629,307.80065c14.52934,-0.07238 29.0572,-0.05038 43.58642,0.03881c-5.09529,5.09529 -10.1906,10.1906 -15.28589,15.28589c-0.9399,-0.64433 -1.87981,-1.28868 -2.84819,-1.95253c-1.23547,-0.83744 -2.47095,-1.67489 -3.74385,-2.5377c-1.22365,-0.83349 -2.4473,-1.667 -3.70802,-2.52575c-8.47647,-5.28499 -18.25349,-4.57956 -27.91466,-3.68414c-2.88396,1.26894 -5.07889,2.76494 -7.61794,4.60666c-4.08361,1.99754 -7.42399,1.92559 -11.96113,2.05704c-11.73685,0.74386 -22.13337,3.90006 -33.25278,7.57128c-1.87093,0.59803 -3.74188,1.19606 -5.6695,1.81222c-5.47574,1.75723 -10.9373,3.55427 -16.39949,5.35304c-1.71404,0.54459 -3.42809,1.08917 -5.19407,1.65025c-1.61009,0.51749 -3.2202,1.03498 -4.87909,1.56815c-1.41466,0.44963 -2.82933,0.89927 -4.28685,1.36252c-4.32196,1.66391 -7.92138,3.32327 -11.626,6.1192c0,2.01774 0,4.03547 0,6.11435c97.60802,0.75665 97.60802,0.75665 197.18792,1.52859c-3.5667,3.5667 -7.13342,7.13342 -10.70012,10.70012c-4.0813,-0.44123 -7.33652,-1.38872 -11.07033,-3.09301c-9.72407,-3.44336 -22.80283,-3.4685 -32.30337,0.80012c-4.70151,2.72608 -7.59912,6.19089 -11.08227,10.31797c-4.04072,4.30582 -6.06824,5.61411 -11.94807,6.73534c-10.50938,0.26301 -15.70616,-0.26468 -23.78268,-7.11749c-10.30707,-4.39134 -23.22568,-5.29792 -34.01707,-2.00627c-6.6496,3.57026 -15.20047,10.19676 -17.44142,17.57877c-0.16946,0.91429 -0.33892,1.82857 -0.51351,2.77057c-4.07364,-0.81472 -7.04559,-2.0037 -10.79566,-3.91701c-7.51174,-3.20329 -14.82031,-3.54712 -22.83329,-2.19735c-6.765,2.75803 -14.08153,5.94097 -18.88045,11.6137c-3.99553,3.39905 -8.76192,3.79168 -13.79313,4.62756c-1.08683,0.1952 -2.17365,0.3904 -3.29341,0.5915c-6.83487,1.17211 -13.56259,1.82711 -20.49525,2.17906c-8.72378,0.50037 -15.41603,2.74733 -23.02437,6.97419c0,2.01774 0,4.03547 0,6.11435c2.33445,2.33445 4.43257,1.74274 7.68961,1.77044c1.32688,0.01496 2.65374,0.02993 4.0208,0.04534c1.46674,0.0088 2.93347,0.01759 4.44463,0.02666c1.53588,0.01513 3.07174,0.03027 4.65415,0.04586c5.10319,0.04849 10.2064,0.08624 15.30969,0.12395c3.52777,0.03143 7.05552,0.06351 10.58329,0.09626c9.30553,0.08455 18.6111,0.16001 27.91672,0.23364c9.48749,0.07664 18.97489,0.16183 28.46232,0.2463c18.63061,0.16463 37.26127,0.31966 55.892,0.46873c-3.61849,3.61849 -5.88403,4.07898 -10.79566,5.35006c-1.49951,0.39211 -2.99901,0.78424 -4.54397,1.18823c-5.11782,1.24744 -10.25123,2.35747 -15.42321,3.35574c-3.33749,0.77953 -3.33749,0.77953 -7.45187,3.86326c0.50443,2.01774 1.00887,4.03547 1.52859,6.11435c51.45229,0.50443 102.90458,1.00887 155.91603,1.52859c-8.60655,8.60655 -8.60655,8.60655 -13.04077,11.07629c-0.9755,0.54902 -1.95098,1.09803 -2.95605,1.66369c-1.02648,0.55641 -2.05296,1.11281 -3.11054,1.68608c-1.08855,0.59581 -2.17709,1.19163 -3.29863,1.80549c-3.22034,1.74476 -6.45408,3.46132 -9.69437,5.16869c-2.36749,1.26208 -2.36749,1.26208 -4.78282,2.54964c-51.3503,25.50421 -114.62358,29.54088 -168.90306,11.39873c-4.29743,-1.51874 -8.55357,-3.12639 -12.80193,-4.77684c-2.7399,-1.03449 -2.7399,-1.03449 -5.53516,-2.08987c-41.9281,-16.84738 -85.85828,-49.84746 -106.05181,-91.15403c1.33033,-0.01576 2.66068,-0.0315 4.03132,-0.04774c12.52836,-0.14968 25.05659,-0.30638 37.58475,-0.47097c6.44107,-0.08438 12.88216,-0.16602 19.32335,-0.24147c6.2144,-0.0729 12.42868,-0.15292 18.64293,-0.23789c2.37257,-0.03118 4.74518,-0.0598 7.11783,-0.0858c3.31948,-0.03682 6.63872,-0.08276 9.95805,-0.13086c1.89068,-0.02375 3.78136,-0.04752 5.72935,-0.072c4.68768,-0.04054 4.68768,-0.04054 9.1994,-1.77044c-0.50443,-2.52217 -1.00887,-5.04434 -1.52859,-7.64294c-1.26897,-0.37438 -2.53793,-0.74876 -3.84535,-1.1345c-21.40551,-6.49329 -42.38576,-14.18186 -63.41255,-21.79433c0,-1.00887 0,-2.01774 0,-3.05718c9.71018,-3.62531 19.06324,-5.6784 29.32979,-6.97419c2.63327,-0.35203 5.26649,-0.70434 7.8997,-1.05688c4.55341,-0.60421 9.10722,-1.20127 13.66399,-1.77974c12.94423,-1.72283 25.47914,-4.333 38.1468,-7.48136c1.94569,-0.47019 3.89139,-0.94039 5.89604,-1.42484c8.11465,-1.98316 16.18633,-3.97253 24.13236,-6.55846c22.79826,-7.41355 45.93367,-6.72903 69.69035,-6.86371l0.00002,0.00002z" fill="#6EF5E1" id="svg_2" stroke="null"/>
  <path d="m354.31922,144.33423c4.47317,2.04229 7.55321,4.92831 11.15989,8.25796c1.34582,1.22759 2.69163,2.45519 4.07823,3.71997c4.91149,4.87569 4.8671,7.44392 4.99777,14.14541c0.00592,2.08671 0.00592,2.08671 0.01194,4.21557c3.58544,12.88819 17.96623,23.10478 27.26472,32.30079c2.52263,2.49571 5.03951,4.99709 7.55494,7.50005c7.14319,7.10607 14.29528,14.20313 21.45376,21.2938c4.39952,4.35865 8.79162,8.72468 13.1792,13.09534c1.66827,1.65878 3.33943,3.31465 5.01353,4.96755c2.33006,2.30077 4.65062,4.61071 6.96928,6.92298c1.32209,1.31069 2.64418,2.62138 4.00634,3.97179c3.01337,3.37072 3.01337,3.37072 4.54196,7.95649c-1.14679,0.02168 -2.2936,0.04335 -3.47515,0.06568c-10.35426,0.48251 -17.84682,2.17214 -26.85777,7.33842c-3.24227,1.73862 -5.76758,2.81476 -9.41037,3.29602c-2.59139,-1.14618 -5.18097,-2.29768 -7.74444,-3.50499c-5.77591,-2.112 -12.41792,-2.17608 -18.15899,0.09696c-3.13975,0.35086 -3.13975,0.35086 -6.54445,-2.11418c-1.23557,-1.24331 -2.47113,-2.48663 -3.74414,-3.76762c-1.4073,-1.398 -2.81459,-2.79602 -4.26453,-4.23639c-1.52235,-1.55124 -3.04406,-3.10313 -4.56514,-4.65562c-1.5663,-1.57278 -3.13407,-3.14411 -4.70324,-4.71403c-3.28566,-3.29509 -6.55827,-6.60243 -9.82135,-9.91988c-4.19,-4.25926 -8.403,-8.49476 -12.62492,-12.72237c-3.23754,-3.24429 -6.46669,-6.49682 -9.69293,-9.75235c-1.5513,-1.56491 -3.10429,-3.12816 -4.65894,-4.68976c-2.16706,-2.18084 -4.32259,-4.37314 -6.4775,-6.56599c-1.2307,-1.24696 -2.46139,-2.49392 -3.72939,-3.77867c-2.62829,-3.04736 -2.62829,-3.04736 -2.62829,-6.10454c-0.87487,-0.37438 -1.74976,-0.74876 -2.65114,-1.13449c-4.04445,-2.24537 -6.74743,-4.90876 -9.95972,-8.22812c-1.07981,-1.10739 -2.15961,-2.21477 -3.27213,-3.35573c-0.81183,-0.8473 -1.62365,-1.69458 -2.46008,-2.56755c2.15294,-4.91478 4.7439,-8.13489 8.59831,-11.84656c1.44828,-1.4069 1.44828,-1.4069 2.92581,-2.84221c0.73695,-0.70148 1.4739,-1.40295 2.23318,-2.1257c5.70776,2.37984 9.30622,5.88851 13.63564,10.25565c0.72654,0.72854 1.45306,1.45708 2.20161,2.20771c2.39088,2.40077 4.77091,4.81201 7.15129,7.22319c1.66246,1.67205 3.3257,3.3433 4.98971,5.01379c4.37285,4.39316 8.73709,8.79476 13.09893,13.19884c6.99059,7.05658 13.99152,14.10282 20.9974,21.14422c2.44742,2.46306 4.88959,4.93127 7.33126,7.40003c1.49438,1.50482 2.98893,3.00945 4.48366,4.51391c1.30537,1.31799 2.61075,2.63597 3.95568,3.99391c2.93202,3.07315 2.93202,3.07315 6.22719,4.53535c0,1.00887 0,2.01774 0,3.05718c1.3537,0.58524 1.3537,0.58524 2.73474,1.18227c3.69503,2.04988 5.76567,4.25255 8.5386,7.41604c4.41912,4.61851 4.41912,4.61851 10.79566,5.82774c1.93892,-0.33103 1.93892,-0.33103 3.91701,-0.66876c-0.4825,-8.04964 -5.21599,-12.15664 -10.68257,-17.49106c-1.43163,-1.43296 -1.43163,-1.43296 -2.89217,-2.89487c-3.15351,-3.14926 -6.32811,-6.27631 -9.50336,-9.40363c-2.19252,-2.1811 -4.38369,-4.36355 -6.57354,-6.54733c-5.76394,-5.7406 -11.54601,-11.46261 -17.33202,-17.18097c-5.90232,-5.83974 -11.78734,-11.69687 -17.67385,-17.55255c-11.55003,-11.48448 -23.11929,-22.9494 -34.70075,-34.4022c1.46538,-1.71193 2.93108,-3.42356 4.39694,-5.13509c0.81617,-0.95321 1.63235,-1.90641 2.47327,-2.8885c2.56393,-2.98194 5.14572,-5.92799 7.84245,-8.79088c0.83941,-0.91428 1.67882,-1.82857 2.54366,-2.77057c2.61532,-1.8152 2.61532,-1.8152 5.49934,-1.76145l-0.00003,0z" fill="#A4AFAF" id="svg_3" stroke="null"/>
  <path d="m467.60793,341.46841c-0.80005,8.55646 -4.07803,14.85401 -8.12063,22.26007c-0.59803,1.134 -1.19606,2.26798 -1.81222,3.43634c-6.65555,12.39499 -6.65555,12.39499 -11.46739,17.10407c-3.61846,0.51948 -3.61846,0.51948 -7.45187,-0.09554c-1.3537,-0.20492 -2.70739,-0.40986 -4.1021,-0.62099c-3.73191,-0.81206 -3.73191,-0.81206 -8.22214,-2.43619c-10.47531,-3.20673 -20.03996,-2.68552 -29.90301,2.10181c-4.42488,2.39203 -8.3739,4.66712 -11.46441,8.69385c0.35887,5.57235 0.35887,5.57235 1.52859,10.70012c2.77136,1.17417 2.77136,1.17417 6.11435,1.52859c2.90063,-1.75659 2.90063,-1.75659 5.4456,-4.39469c4.73236,-4.5321 7.84406,-6.10173 14.52159,-6.78311c7.86252,0.62402 14.16836,3.37566 21.3047,6.59204c-1.90118,3.22373 -3.92187,6.14572 -6.11435,9.17153c-0.71035,1.15862 -1.42069,2.31725 -2.15256,3.51098c-4.20626,5.55388 -8.11381,9.53329 -15.15868,10.97221c-10.55231,1.02001 -21.12399,0.52397 -31.69914,0.13393c-3.25111,-0.06908 -6.50236,-0.13184 -9.75371,-0.18809c-7.93007,-0.15089 -15.85333,-0.38788 -23.7797,-0.67174c5.41276,-5.99792 5.41276,-5.99792 11.72713,-7.04583c2.07673,-0.10083 4.15507,-0.17174 6.23378,-0.21497c1.59901,-0.06798 1.59901,-0.06798 3.23034,-0.13733c2.61638,-0.10752 5.23416,-0.1797 7.85193,-0.24482c-0.46585,-3.73266 -0.46585,-3.73266 -1.52859,-7.64294c-6.75178,-4.77565 -13.3366,-5.69017 -21.40024,-4.58577c-8.66867,2.06702 -13.93449,5.44338 -19.87165,12.22871c-0.91428,0.85123 -1.82857,1.70247 -2.77057,2.57949c-2.15705,1.93318 -2.15705,1.93318 -1.8152,5.06345c-11.09755,0 -22.19511,0 -33.62895,0c5.78699,-3.85799 11.83545,-5.58277 18.46845,-7.59517c5.63581,-1.74958 5.63581,-1.74958 9.1357,-6.20989c0.23748,-3.40345 0.23748,-3.40345 -3.24227,-6.25766c-3.37457,-5.00744 -3.33822,-6.09329 -2.48396,-11.84656c2.06508,-8.32254 6.40858,-13.53006 13.27961,-18.53414c11.86069,-3.95356 23.77348,-2.10863 34.96646,2.91387c2.64458,1.36118 5.20723,2.88063 7.73848,4.44246c1.04039,0.59901 2.08079,1.19803 3.15271,1.8152c1.5133,-0.50443 3.02661,-1.00887 4.58577,-1.52859c0.06305,-1.60788 0.12611,-3.21577 0.19107,-4.87238c1.39848,-6.09334 2.83727,-8.2169 7.86387,-11.84656c9.91722,-6.08913 20.25791,-8.71629 31.7839,-7.06972c0.97735,0.28374 1.95468,0.56749 2.96164,0.85983c0.50443,-1.00887 1.00887,-2.01774 1.52859,-3.05718c1.00887,0 2.01774,0 3.05718,0c0,-1.00887 0,-2.01774 0,-3.05718c12.03794,-11.41681 25.9023,-10.13436 41.27189,-9.17153l0.00001,0.00002z" fill="#6BB543" id="svg_4" stroke="null"/>
  <path id="svg_5" d="m193.99058,188.60956c0.03831,1.56638 0.0766,3.13277 0.11607,4.7466c0.14355,5.79164 0.29681,11.58297 0.45304,17.37427c0.06636,2.51025 0.13005,5.02059 0.19107,7.53097c0.08799,3.6009 0.18542,7.20141 0.28475,10.802c0.02556,1.12894 0.0511,2.25788 0.07742,3.42103c-0.30382,5.25856 -0.30382,5.25856 1.93483,9.62572c3.05654,0.06238 6.11504,0.06503 9.17153,0c0.17565,-6.11435 0.10311,-6.11435 0,-6.11435c0,-14.12416 0,-28.24832 0,-42.80048c12.03759,10.31793 12.03759,10.31793 17.40636,15.70423c1.79799,1.79817 1.79799,1.79817 3.63231,3.63266c1.25824,1.26613 2.51647,2.53226 3.81283,3.83676c1.32388,1.32604 2.64776,2.65207 4.01175,4.01831c4.20353,4.21203 8.4017,8.42936 12.59971,12.64688c2.83191,2.83958 5.66417,5.67883 8.4968,8.51771c5.19327,5.2057 10.38454,10.41337 15.57324,15.62361c1.10506,1.1091 2.21013,2.2182 3.34866,3.36091c1.77483,1.78203 3.54871,3.56497 5.32073,5.34978c3.49969,3.51835 7.04866,6.95901 10.71189,10.30674c0.94089,0.86501 1.88178,1.73004 2.85118,2.62128c1.96075,1.79719 3.92328,3.59243 5.88745,5.38589c2.43891,2.24534 4.84012,4.53152 7.23392,6.8249c0,0.50443 0,1.00887 0,1.52859c-21.20778,5.2027 -48.45777,10.1337 -68.31871,-1.51926c-14.65718,-9.80784 -26.98888,-22.81353 -39.06464,-35.54901c-0.8425,-0.88322 -1.68499,-1.76642 -2.55302,-2.67641c-5.68323,-5.9755 -11.26807,-12.03111 -16.7693,-18.17449c-0.73129,-0.8135 -1.4626,-1.627 -2.21606,-2.46515c-2.04152,-2.29351 -4.04648,-4.61939 -6.04936,-6.94672c-1.13576,-1.31703 -2.2715,-2.63406 -3.44166,-3.99099c-2.2174,-3.57881 -2.2174,-3.57881 -1.95644,-6.95236c1.64499,-3.55674 3.66659,-5.25232 6.71322,-7.70872c5.90125,-4.91061 11.2754,-10.15278 16.61742,-15.66206c2.3944,-2.29886 2.3944,-2.29886 3.92298,-2.29886l0.00003,0.00002z" opacity="undefined" stroke="null" fill="#A3AFAF"/>
  <path d="m296.40601,199.30968c10.10509,8.30572 19.2482,17.52444 28.46398,26.78613c1.69794,1.70078 3.39622,3.40125 5.09483,5.10137c4.43867,4.44446 8.87272,8.89351 13.3058,13.34357c4.5369,4.55261 9.07821,9.10083 13.61913,13.64944c8.88622,8.90255 17.76756,17.80994 26.64581,26.72045c-1.64172,4.4561 -2.71798,7.30375 -6.11435,10.70012c-4.37627,0.55148 -8.59999,0.92282 -12.993,1.14644c-1.2,0.08473 -2.40001,0.16946 -3.63637,0.25676c-3.11416,0.17628 -6.2377,0.16342 -9.35663,0.12539c-1.00887,-1.00887 -2.01774,-2.01774 -3.05718,-3.05718c-1.39126,0.13805 -2.78252,0.27611 -4.21594,0.41834c-8.56369,0.7729 -15.1147,0.51122 -22.39433,-4.46195c-9.93138,-8.35938 -18.70167,-17.92356 -27.55909,-27.388c-2.76253,-2.86999 -5.53007,-5.73514 -8.30274,-8.59533c-6.74956,-6.9842 -13.4342,-14.0259 -20.07168,-21.11661c2.47289,-5.23516 5.23302,-8.64709 9.37454,-12.73027c1.8473,-1.83252 1.8473,-1.83252 3.73191,-3.70206c1.2867,-1.26109 2.57339,-2.52217 3.89909,-3.82147c1.29852,-1.28473 2.59704,-2.56947 3.93492,-3.89312c3.20366,-3.16768 6.41425,-6.32797 9.6313,-9.48203l0,0.00001z" fill="#A4B0B0" id="svg_7" stroke="null"/>
  <path d="m197.04776,304.78229c1.5133,1.00887 3.02661,2.01774 4.58577,3.05718c-7.58246,1.83117 -15.17113,3.62973 -22.77358,5.37618c-2.5374,0.58306 -5.07265,1.17542 -7.60711,1.77116c-7.59869,1.59524 -14.96088,2.15643 -22.69858,2.38319c-13.32926,0.40974 -25.96821,1.89166 -39.01819,4.70445c-1.45468,0.30702 -2.90936,0.61403 -4.40813,0.93036c-11.08939,2.53273 -20.74723,5.67865 -28.83867,13.87784c-1.35567,0.75665 -2.71133,1.5133 -4.10808,2.29288c-1.16651,0.75665 -2.33301,1.5133 -3.53486,2.29288c0,1.5133 0,3.02661 0,4.58577c3.9134,1.9567 6.89704,1.69459 11.27334,1.8152c10.90614,0.76581 19.12654,4.99631 28.46996,10.41351c-5.6768,3.67846 -11.21753,3.45184 -17.74597,3.35573c-1.11098,-0.00433 -2.22197,-0.00865 -3.36664,-0.0131c-3.53546,-0.01706 -7.07032,-0.05543 -10.60561,-0.09438c-2.40235,-0.01533 -4.80469,-0.02929 -7.20705,-0.04179c-5.87774,-0.03364 -11.75503,-0.08638 -17.63251,-0.14928c-11.56544,-22.50802 -11.56544,-22.50802 -15.19035,-33.72448c-0.61281,-1.84631 -1.22562,-3.69261 -1.85699,-5.59488c-1.16856,-4.51806 -1.71168,-8.02624 -1.29572,-12.65265c0.50443,-0.50443 1.00887,-1.00887 1.52859,-1.52859c3.04721,0.06463 6.09451,0.13718 9.14018,0.25378c11.76561,0.402 19.59362,0.07209 29.83883,-6.17108c7.94288,-3.58671 16.74457,-2.87347 25.22171,-1.72564c5.4456,2.67503 5.4456,2.67503 9.17153,6.11435c6.88739,6.32895 12.35025,7.55063 21.40024,9.17153c-1.00887,-4.53991 -2.01774,-9.07982 -3.05718,-13.7573c17.69892,-12.30806 51.04517,-2.20065 70.31507,3.05718z" fill="#5F9D3C" id="svg_8" stroke="null"/>
  <path d="m264.30565,119.82307c-0.09864,1.9851 -0.09864,1.9851 -0.19928,4.01031c-2.1504,26.95863 -2.1504,26.95863 6.59427,51.28757c4.98283,5.29112 10.45504,9.52757 16.53384,13.4886c-4.89888,11.49152 -16.49066,19.78582 -25.98601,27.51459c-2.06511,2.01077 -4.11505,4.03815 -6.11435,6.11435c-10.59023,-8.66059 -20.08877,-18.38944 -29.71194,-28.08781c-1.7183,-1.72599 -3.43697,-3.45163 -5.15601,-5.1769c-4.17687,-4.19358 -8.34891,-8.39192 -12.5183,-12.59294c2.97222,-6.58255 7.59806,-10.62935 12.89747,-15.38142c11.29447,-10.30475 22.10128,-21.04461 32.83144,-31.93354c1.18929,-1.20185 2.37858,-2.40369 3.60391,-3.64197c1.06281,-1.08054 2.12561,-2.16109 3.22063,-3.27437c2.47575,-2.32647 2.47575,-2.32647 4.00434,-2.32647l-0.00001,0z" fill="#A3AFAF" id="svg_9" stroke="null"/>
  <path d="m155.77586,225.29568c8.47495,7.06304 16.32867,14.57667 24.11706,22.38546c1.24022,1.23875 2.48044,2.47752 3.75825,3.75382c2.60057,2.59955 5.19925,5.20099 7.79611,7.80427c3.99576,4.004 7.99968,7.9997 12.00442,11.99471c2.52923,2.53024 5.05799,5.06096 7.58622,7.59219c1.20356,1.20048 2.40713,2.40094 3.64717,3.6378c1.6467,1.65392 1.6467,1.65392 3.32665,3.34125c1.4587,1.46052 1.4587,1.46052 2.94687,2.95056c2.07515,2.26925 2.07515,2.26925 2.07515,3.79784c-16.21901,0.64589 -31.12196,-0.96096 -47.01903,-4.07636c-3.47511,-0.59208 -3.47511,-0.59208 -7.23093,-0.57993c-7.81653,-0.19303 -12.09474,-1.17613 -17.77284,-6.74244c-1.95377,-2.18493 -3.86831,-4.40553 -5.74415,-6.65772c-1.93854,-2.20734 -3.87714,-4.41466 -5.81581,-6.62189c-0.87833,-1.03768 -1.75665,-2.07538 -2.66159,-3.14451c-2.5287,-2.98708 -2.5287,-2.98708 -6.2472,-6.20616c-2.28094,-2.65711 -2.28094,-2.65711 -2.2093,-5.81581c1.69843,-3.44558 3.4104,-5.0802 6.42486,-7.44589c4.75879,-3.8653 9.09111,-7.92747 13.37515,-12.32425c2.54765,-2.54765 5.09529,-5.09529 7.64294,-7.64294z" fill="#A3AFAF" id="svg_10" stroke="null"/>
  <path d="m288.76307,93.83707c7.61309,6.41888 7.61309,6.41888 10.70012,9.17153c1.95869,1.64834 1.95869,1.64834 3.95693,3.32998c4.58225,5.36165 4.625,7.96311 4.60555,14.92948c0.01836,1.49426 0.01836,1.49426 0.03708,3.0187c0.03511,3.16254 0.02087,6.32206 -0.00125,9.48468c-0.00589,3.17297 -0.00063,6.34462 0.03149,9.51744c0.02692,2.87034 0.01548,5.74098 0.00209,8.61141c0.59005,5.03948 1.32683,6.09682 5.1254,9.19467c-0.22093,5.70932 -3.48636,8.77899 -7.35633,12.70639c-1.05025,1.09754 -2.10049,2.19508 -3.18257,3.32587c-3.2184,2.3108 -3.2184,2.3108 -5.98485,2.06337c-7.94247,-3.0394 -14.4706,-9.18754 -18.63378,-16.56704c-2.4975,-7.98859 -2.49105,-16.34161 -2.47798,-24.64551c-0.00599,-3.83625 -0.15893,-7.64718 -0.32842,-11.47933c-0.46033,-17.64986 -0.46033,-17.64986 4.07375,-24.90973c2.99435,-3.00757 5.86272,-5.47108 9.43277,-7.75192l0,0.00001z" fill="#A4B0B0" id="svg_11" stroke="null"/>
  <path d="m388.25269,316.71244c4.18907,2.61603 7.1511,3.46097 12.09734,3.35573c1.93906,-1.06457 3.84776,-2.18529 5.73221,-3.34379c4.05664,-2.25455 5.81914,-2.87767 10.46128,-2.1436c8.61647,3.1298 13.46589,6.3589 17.43546,14.65892c0,1.00887 0,2.01774 0,3.05718c-1.73398,0.72513 -3.46799,1.45025 -5.25452,2.19735c-5.07476,1.83235 -5.07476,1.83235 -6.97419,3.91701c-2.76898,0.09814 -5.54188,0.08707 -8.31207,0.03322c-1.77489,-0.03072 -3.54978,-0.06143 -5.37845,-0.09309c-1.9314,-0.04132 -3.8628,-0.08265 -5.85272,-0.12522c-1.9657,-0.03609 -3.93141,-0.07218 -5.95667,-0.10937c-5.23468,-0.09619 -10.46913,-0.20173 -15.7036,-0.30916c-5.33792,-0.10792 -10.676,-0.20708 -16.01407,-0.30696c-10.48035,-0.19739 -20.96051,-0.40463 -31.44056,-0.61801c1.82457,-9.90868 5.87403,-15.78581 13.85283,-21.97346c13.1822,-7.29227 28.84213,-6.1294 41.30772,1.80326l0.00001,-0.00001z" fill="#64AB3E" id="svg_12" stroke="null"/>
  <path d="m469.80528,287.61552c5.736,2.64657 10.3512,5.17739 13.08854,11.05241c-0.4958,5.11107 -1.90216,9.89208 -3.34379,14.8082c-0.53941,2.01725 -0.53941,2.01725 -1.08972,4.07523c-2.01425,7.23681 -2.01425,7.23681 -3.20944,10.15975c-3.05718,1.52859 -3.05718,1.52859 -6.87865,0.85983c-6.91321,-1.11105 -13.65089,-0.98407 -20.63595,-0.85983c-3.05718,-5.70833 -3.05718,-5.70833 -3.05718,-9.3626c1.52859,-2.8661 1.52859,-2.8661 6.20989,-4.77684c1.48177,-0.37833 2.96355,-0.75665 4.49023,-1.14644c-0.75665,-3.78326 -0.75665,-3.78326 -1.52859,-7.64294c-4.92693,-0.22917 -8.49299,-0.28135 -13.08854,1.62413c-4.56583,1.75609 -6.74163,1.32824 -11.36888,-0.09554c-1.37733,-0.7803 -1.37733,-0.7803 -2.78251,-1.57636c-9.48341,-4.21485 -21.40643,-1.7801 -30.84644,1.57636c-1.5133,-1.5133 -3.02661,-3.02661 -4.58577,-4.58577c11.96197,-10.3308 11.96197,-10.3308 20.44487,-11.27334c5.54113,0.57322 5.54113,0.57322 10.31797,3.82147c4.03771,3.3562 4.03771,3.3562 7.92955,2.19735c2.36948,-1.37761 4.71828,-2.79564 6.99806,-4.31707c10.52264,-6.60503 20.87778,-8.34493 32.93631,-4.538l0.00004,0z" fill="#61A53D" id="svg_13" stroke="null"/>
  <path d="m163.41881,148.86626c2.20928,2.24511 2.20928,2.24511 4.77684,5.35006c5.71171,6.7338 11.83805,12.94102 18.15199,19.10736c-2.22784,5.14119 -5.06143,8.47654 -9.04016,12.39591c-1.16257,1.15271 -2.32514,2.30542 -3.52292,3.49305c-1.21379,1.18819 -2.42758,2.37636 -3.67817,3.60054c-1.83843,1.81774 -1.83843,1.81774 -3.714,3.67219c-3.02254,2.98656 -6.05199,5.96574 -9.08793,8.93867c-4.652,-2.07647 -7.8311,-4.40941 -11.39277,-8.03703c-0.94581,-0.95567 -1.89163,-1.91133 -2.8661,-2.89596c-0.96945,-0.99508 -1.93891,-1.99016 -2.93775,-3.01539c-0.99311,-1.0069 -1.98622,-2.01379 -3.00941,-3.0512c-2.44325,-2.47919 -4.87906,-4.96522 -7.30856,-7.45785c6.45242,-7.68946 13.16086,-14.96854 20.2538,-22.069c0.9537,-0.97241 1.90739,-1.94482 2.88998,-2.94671c0.91429,-0.91724 1.82859,-1.83449 2.77057,-2.77952c1.23327,-1.24268 1.23327,-1.24268 2.49143,-2.51046c2.16599,-1.79467 2.16599,-1.79467 5.22317,-1.79467l-0.00001,0.00001z" fill="#A4B0B0" id="svg_14" stroke="null"/>
  <path d="m39.51357,307.69019c2.7399,0.0266 2.7399,0.0266 5.53516,0.05375c2.74582,0.02068 2.74582,0.02068 5.54711,0.04179c1.41676,0.01773 2.8335,0.03546 4.29318,0.05375c-1.00887,1.00887 -2.01774,2.01774 -3.05718,3.05718c-1.00887,-0.50443 -2.01774,-1.00887 -3.05718,-1.52859c0,1.00887 0,2.01774 0,3.05718c2.01774,0 4.03547,0 6.11435,0c0,1.00887 0,2.01774 0,3.05718c1.5133,0 3.02661,0 4.58577,0c-0.50443,1.00887 -1.00887,2.01774 -1.52859,3.05718c-1.5133,0 -3.02661,0 -4.58577,0c-0.50443,-1.00887 -1.00887,-2.01774 -1.52859,-3.05718c-1.5133,-0.50443 -3.02661,-1.00887 -4.58577,-1.52859c0.28375,1.13498 0.56749,2.26995 0.85983,3.43932c0.65657,4.12705 0.44135,6.41443 -0.85983,10.31797c3.02661,0 6.05321,0 9.17153,0c-1.71891,4.54286 -3.39795,8.1541 -6.11435,12.22871c-1.00887,-0.50443 -2.01774,-1.00887 -3.05718,-1.52859c0,1.00887 0,2.01774 0,3.05718c2.01774,0 4.03547,0 6.11435,0c-0.25222,0.97733 -0.50443,1.95468 -0.76429,2.96164c-0.82431,2.85962 -0.82431,2.85962 -0.76429,4.6813c3.68576,-2.99044 3.68576,-2.99044 3.24825,-8.59831c-0.06305,-1.70247 -0.12611,-3.40493 -0.19107,-5.15899c2.01774,0 4.03547,0 6.11435,0c-1.00887,-1.5133 -2.01774,-3.02661 -3.05718,-4.58577c1.00887,-1.00887 2.01774,-2.01774 3.05718,-3.05718c0,1.00887 0,2.01774 0,3.05718c1.5133,-1.5133 3.02661,-3.02661 4.58577,-4.58577c-1.00887,0 -2.01774,0 -3.05718,0c0,-1.5133 0,-3.02661 0,-4.58577c1.00887,0 2.01774,0 3.05718,0c0.50443,-2.52217 1.00887,-5.04434 1.52859,-7.64294c2.52217,1.00887 5.04434,2.01774 7.64294,3.05718c-0.50443,2.52217 -1.00887,5.04434 -1.52859,7.64294c0.50443,-1.00887 1.00887,-2.01774 1.52859,-3.05718c3.15271,-0.95537 3.15271,-0.95537 6.11435,-1.52859c0.50443,1.5133 1.00887,3.02661 1.52859,4.58577c-2.52217,1.5133 -5.04434,3.02661 -7.64294,4.58577c1.00887,0.50443 2.01774,1.00887 3.05718,1.52859c0.50443,-1.00887 1.00887,-2.01774 1.52859,-3.05718c1.00887,0 2.01774,0 3.05718,0c-2.0748,6.22441 -6.20124,8.53931 -11.52412,11.85252c-0.73695,0.62857 -1.4739,1.25714 -2.23318,1.90477c0,1.5133 0,3.02661 0,4.58577c3.9134,1.9567 6.89704,1.69459 11.27334,1.8152c10.90614,0.76581 19.12656,4.99631 28.46996,10.41351c-5.67678,3.67846 -11.21752,3.45183 -17.74595,3.35573c-1.11099,-0.00433 -2.22199,-0.00865 -3.36664,-0.01312c-3.53547,-0.01706 -7.07033,-0.05543 -10.60562,-0.09436c-2.40235,-0.01535 -4.80469,-0.02929 -7.20705,-0.04181c-5.87773,-0.03363 -11.75501,-0.08638 -17.63251,-0.14927c-11.56544,-22.50802 -11.56544,-22.50802 -15.19035,-33.72448c-0.6128,-1.84632 -1.22561,-3.69263 -1.85699,-5.59488c-1.16856,-4.51806 -1.71167,-8.02625 -1.29572,-12.65265c1.52859,-1.52859 1.52859,-1.52859 6.02479,-1.67787l0,0.00001z" fill="#65AA3F" id="svg_15" stroke="null"/>
  <path d="m372.83544,393.44042c1.00887,0 2.01774,0 3.05718,0c0,2.52217 0,5.04434 0,7.64294c1.00887,-2.01774 2.01774,-4.03547 3.05718,-6.11435c0.15764,0.94581 0.31527,1.89163 0.47768,2.8661c0.86021,3.80658 0.86021,3.80658 5.63667,6.30543c0.50443,1.5133 1.00887,3.02661 1.52859,4.58577c1.00887,-0.50443 2.01774,-1.00887 3.05718,-1.52859c0,1.5133 0,3.02661 0,4.58577c1.00887,-1.5133 2.01774,-3.02661 3.05718,-4.58577c1.00887,1.00887 2.01774,2.01774 3.05718,3.05718c1.00887,-1.00887 2.01774,-2.01774 3.05718,-3.05718c-0.75665,-2.26995 -0.75665,-2.26995 -1.52859,-4.58577c1.5133,0.50443 3.02661,1.00887 4.58577,1.52859c0,-2.01774 0,-4.03547 0,-6.11435c2.01774,0 4.03547,0 6.11435,0c0,-1.5133 0,-3.02661 0,-4.58577c9.86722,-0.85801 17.05049,2.08707 25.98601,6.11435c-1.90118,3.22373 -3.92187,6.14572 -6.11435,9.17153c-1.06552,1.73793 -1.06552,1.73793 -2.15256,3.51098c-4.20626,5.55388 -8.11381,9.53329 -15.15868,10.97221c-10.55231,1.02001 -21.12399,0.52397 -31.69914,0.13393c-3.25111,-0.06908 -6.50236,-0.13184 -9.75371,-0.18809c-7.93007,-0.15089 -15.85333,-0.38788 -23.7797,-0.67174c5.41276,-5.99792 5.41276,-5.99792 11.72713,-7.04583c2.07673,-0.10083 4.15507,-0.17174 6.23378,-0.21497c1.59901,-0.06798 1.59901,-0.06798 3.23034,-0.13733c2.61638,-0.10752 5.23416,-0.1797 7.85193,-0.24482c-0.4032,-3.73859 -0.4032,-3.73859 -1.52859,-7.64294c-4.53543,-2.84191 -4.53543,-2.84191 -9.17153,-4.58577c0.50443,-2.52217 1.00887,-5.04434 1.52859,-7.64294c2.52217,0.50443 5.04434,1.00887 7.64294,1.52859c0,-1.00887 0,-2.01774 0,-3.05718l-0.00001,0.00002z" fill="#62A33D" id="svg_16" stroke="null"/>
  <path d="m336.14931,370.51159c0,3.02661 0,6.05321 0,9.17153c1.00887,0 2.01774,0 3.05718,0c0,-2.52217 0,-5.04434 0,-7.64294c1.00887,0 2.01774,0 3.05718,0c0,1.5133 0,3.02661 0,4.58577c1.00887,0 2.01774,0 3.05718,0c-0.50443,2.52217 -1.00887,5.04434 -1.52859,7.64294c1.00887,0 2.01774,0 3.05718,0c0.50443,-2.52217 1.00887,-5.04434 1.52859,-7.64294c3.78326,1.5133 3.78326,1.5133 7.64294,3.05718c0,2.01774 0,4.03547 0,6.11435c-4.60154,1.42807 -5.91029,1.59661 -10.70012,0c0,1.00887 0,2.01774 0,3.05718c5.54702,0.23157 5.54702,0.23157 10.70012,-1.52859c0,6.11435 0,6.11435 -3.05718,10.70012c-1.00887,-1.00887 -2.01774,-2.01774 -3.05718,-3.05718c-1.00887,0 -2.01774,0 -3.05718,0c0,1.00887 0,2.01774 0,3.05718c1.5133,0 3.02661,0 4.58577,0c0,1.5133 0,3.02661 0,4.58577c-1.86009,0.59901 -3.7202,1.19803 -5.63667,1.8152c-6.21362,2.31639 -9.83439,5.38427 -14.23498,10.41351c-0.91429,0.85124 -1.82857,1.70247 -2.77057,2.57949c-2.15705,1.93318 -2.15705,1.93318 -1.8152,5.06345c-11.09755,0 -22.19511,0 -33.62895,0c5.78699,-3.85799 11.83545,-5.58277 18.46845,-7.59517c5.63581,-1.74958 5.63581,-1.74958 9.1357,-6.20989c0.23748,-3.40345 0.23748,-3.40345 -3.24227,-6.25766c-3.37457,-5.00744 -3.33822,-6.09329 -2.48396,-11.84656c2.06508,-8.32254 6.40858,-13.53006 13.27961,-18.53414c4.58577,-1.52859 4.58577,-1.52859 7.64294,-1.52859l0.00001,-0.00001z" fill="#63A73E" id="svg_17" stroke="null"/>
  <path d="m262.77706,378.15454c8.97933,1.67411 14.07777,3.15051 19.87165,10.70012c1.24198,4.29916 1.24198,4.29916 1.52859,7.64294c4.53991,0.75665 4.53991,0.75665 9.17153,1.52859c0.15763,-0.94581 0.31527,-1.89163 0.47768,-2.8661c1.0509,-3.24825 1.0509,-3.24825 5.63667,-6.30543c1.5133,0 3.02661,0 4.58577,0c0.37833,1.70247 0.75665,3.40493 1.14644,5.15899c1.4084,6.18137 1.4084,6.18137 8.02509,8.59831c-41.86804,0 -83.73608,0 -126.87285,0c7.51816,-7.51816 7.51816,-7.51816 14.23498,-8.02509c5.63667,0.38215 5.63667,0.38215 9.45814,2.77057c5.26995,3.03023 8.73209,1.91748 14.52159,0.66876c-0.50443,-3.02661 -1.00887,-6.05321 -1.52859,-9.17153c0.86897,0.19902 1.73793,0.39803 2.63324,0.60307c7.28411,1.44655 7.28411,1.44655 14.09764,-0.78221c1.7501,-1.45187 3.4977,-2.90672 5.24258,-4.36484c2.48396,-1.57038 2.48396,-1.57038 7.35633,-0.80609c4.29916,2.29288 4.29916,2.29288 7.45187,4.6813c3.4997,2.59655 6.3321,3.13254 10.60458,3.72593c-1.90947,-5.28777 -4.0894,-9.39613 -7.64294,-13.7573l0.00001,0.00001z" fill="#69B741" id="svg_18" stroke="null"/>
  <path d="m53.36043,255.86745c7.3229,3.33627 12.10275,8.89023 17.56383,14.62609c8.33177,8.59866 8.33177,8.59866 19.59998,11.64653c1.35566,-0.09459 2.71133,-0.18916 4.10808,-0.28661c0,1.00887 0,2.01774 0,3.05718c-1.14679,0.16749 -2.2936,0.33497 -3.47515,0.50754c-1.56453,0.24237 -3.12907,0.48473 -4.74101,0.73444c-1.52512,0.23054 -3.05025,0.46108 -4.6216,0.69861c-4.46809,0.90622 -8.41826,2.0647 -12.71833,3.50501c-8.45479,2.60792 -16.29255,2.72459 -25.07841,2.48396c-1.46206,-0.0207 -2.92414,-0.04138 -4.43052,-0.0627c-3.55571,-0.05333 -7.10951,-0.12825 -10.66429,-0.22391c-0.91225,-6.32875 -1.43304,-10.16498 2.29288,-15.5307c3.19252,-3.38582 6.4978,-6.55497 9.93583,-9.69101c1.1665,-1.11133 2.33301,-2.22266 3.53486,-3.36766c2.87228,-2.72867 5.769,-5.42472 8.69385,-8.09675l0,-0.00002z" fill="#A4AFB0" id="svg_19" stroke="null"/>
  <path d="m336.14931,307.83946c-5.09529,5.09529 -10.1906,10.1906 -15.28589,15.28589c-0.9399,-0.64433 -1.87981,-1.28868 -2.84819,-1.95253c-1.23547,-0.83745 -2.47095,-1.67489 -3.74385,-2.5377c-1.22365,-0.83349 -2.4473,-1.667 -3.70802,-2.52575c-8.47647,-5.28499 -18.25349,-4.57957 -27.91466,-3.68414c-2.88518,1.26948 -5.0808,2.76632 -7.62093,4.60891c-4.07355,1.9916 -7.38421,1.90213 -11.91036,2.01896c-12.03114,0.7533 -22.73558,4.28622 -34.06484,8.18033c-3.89558,1.338 -7.79715,2.64449 -11.70923,3.93492c-1.69864,0.58264 -3.39729,1.16527 -5.14741,1.76557c-4.44806,0.89155 -4.44806,0.89155 -8.04524,-0.22615c-3.52878,-2.71892 -3.38738,-5.30299 -4.04576,-9.58242c-1.00887,-0.50443 -2.01774,-1.00887 -3.05718,-1.52859c1.90149,-0.49852 3.80296,-0.99705 5.76206,-1.51067c2.56956,-0.67469 5.1391,-1.34942 7.70863,-2.02419c1.24433,-0.32611 2.48868,-0.65222 3.77072,-0.9882c1.25615,-0.33005 2.51231,-0.66011 3.80654,-1.00016c1.3069,-0.33953 2.61379,-0.67906 3.9603,-1.02889c2.70686,-0.73178 5.40141,-1.51057 8.08182,-2.33393c10.77444,-3.23916 20.845,-4.16704 32.06603,-4.39358c1.80444,-0.05112 3.60888,-0.10222 5.46799,-0.15488c22.81958,-0.57064 45.65298,-0.46293 68.47748,-0.32281l-0.00001,0.00001z" fill="#6EEDDC" id="svg_20" stroke="null"/>
  <path d="m197.04776,304.78229c1.5133,1.00887 3.02661,2.01774 4.58577,3.05718c-3.97941,0.96102 -7.96025,1.91532 -11.9421,2.8661c-1.64779,0.39902 -1.64779,0.39902 -3.32885,0.80609c-15.42098,3.66843 -30.29526,5.96628 -46.1592,6.45471c-2.40147,0.08867 -2.40147,0.08867 -4.85148,0.17914c-3.89188,0.14216 -7.78379,0.27337 -11.67638,0.39409c0,-1.00887 0,-2.01774 0,-3.05718c2.01774,0 4.03547,0 6.11435,0c-1.00887,-4.53991 -2.01774,-9.07982 -3.05718,-13.7573c17.69892,-12.30806 51.04517,-2.20065 70.31507,3.05718l0,-0.00001z" fill="#64AC3E" id="svg_21" stroke="null"/>
  <path d="m119.08974,190.13815c2.01774,1.00887 4.03547,2.01774 6.11435,3.05718c0,7.49932 -2.75313,10.1546 -7.64294,15.28589c-1.20789,1.18424 -2.41577,2.36847 -3.66025,3.58861c-3.91002,3.98035 -7.3834,8.1019 -10.86134,12.46157c-4.5496,5.70301 -9.14493,11.10365 -14.52159,16.05018c-1.00887,0 -2.01774,0 -3.05718,0c-0.31527,0.85123 -0.63054,1.70247 -0.95537,2.57949c-2.94255,4.94882 -6.74644,7.63501 -11.27334,11.1778c-3.02661,-2.52217 -6.05321,-5.04434 -9.17153,-7.64294c6.38611,-7.62144 13.0408,-14.77693 20.09855,-21.77641c1.00488,-1.00272 2.00976,-2.00545 3.04509,-3.03854c3.17304,-3.16456 6.35138,-6.32374 9.52994,-9.48275c2.16784,-2.16017 4.33534,-4.32069 6.50248,-6.48157c5.28033,-5.26359 10.56541,-10.52234 15.85313,-15.7785l0,-0.00001z" fill="#D1D3CC" id="svg_22" stroke="null"/>
  <path d="m264.30565,119.82307c0,15.63746 0,31.27492 0,47.38625c-0.50443,0 -1.00887,0 -1.52859,0c-0.50443,-10.08868 -1.00887,-20.17737 -1.52859,-30.57177c-10.83658,9.41985 -10.83658,9.41985 -20.63595,19.87165c-5.18734,6.16073 -11.019,11.39578 -17.07123,16.69506c-3.3536,2.98847 -6.53624,6.08309 -9.67907,9.29094c-2.01774,-2.01774 -4.03547,-4.03547 -6.11435,-6.11435c2.47099,-6.70236 7.72695,-10.74491 12.89747,-15.38142c11.29447,-10.30475 22.10128,-21.04461 32.83144,-31.93354c1.18929,-1.20185 2.37858,-2.40369 3.60391,-3.64197c1.06281,-1.08054 2.12561,-2.16109 3.22063,-3.27437c2.47575,-2.32647 2.47575,-2.32647 4.00434,-2.32647l-0.00001,-0.00001z" fill="#CDCFC8" id="svg_23" stroke="null"/>
  <path d="m336.14931,370.51159c16.52387,-1.26566 28.43795,4.78147 42.80048,12.22871c-0.50443,2.01774 -1.00887,4.03547 -1.52859,6.11435c1.00887,0 2.01774,0 3.05718,0c0.50443,-1.00887 1.00887,-2.01774 1.52859,-3.05718c0,2.52217 0,5.04434 0,7.64294c-1.79705,0.28374 -1.79705,0.28374 -3.6304,0.57322c-4.22743,0.63617 -4.22743,0.63617 -7.06972,4.01254c-2.01774,-1.00887 -4.03547,-2.01774 -6.11435,-3.05718c0,2.01774 0,4.03547 0,6.11435c-4.53991,0 -9.07982,0 -13.7573,0c0,-1.00887 0,-2.01774 0,-3.05718c-1.5133,0 -3.02661,0 -4.58577,0c0,-1.00887 0,-2.01774 0,-3.05718c1.00887,0 2.01774,0 3.05718,0c0.50443,-1.00887 1.00887,-2.01774 1.52859,-3.05718c0.50443,0 1.00887,0 1.52859,0c0,-0.50443 0,-1.00887 0,-1.52859c-2.52217,-0.50443 -5.04434,-1.00887 -7.64294,-1.52859c0,-1.00887 0,-2.01774 0,-3.05718c3.53104,0 7.06208,0 10.70012,0c0,-2.01774 0,-4.03547 0,-6.11435c-2.52217,-0.50443 -5.04434,-1.00887 -7.64294,-1.52859c-0.50443,2.01774 -1.00887,4.03547 -1.52859,6.11435c-1.00887,0 -2.01774,0 -3.05718,0c0.50443,-2.52217 1.00887,-5.04434 1.52859,-7.64294c-1.00887,0 -2.01774,0 -3.05718,0c0,-1.5133 0,-3.02661 0,-4.58577c-1.00887,0 -2.01774,0 -3.05718,0c0,2.52217 0,5.04434 0,7.64294c-1.5133,0.50443 -3.02661,1.00887 -4.58577,1.52859c0.50443,-3.53104 1.00887,-7.06208 1.52859,-10.70012l0,0.00004z" fill="#68B241" id="svg_24" stroke="null"/>
  <path d="m262.77706,378.15454c8.97933,1.67411 14.07777,3.15051 19.87165,10.70012c1.24198,4.29916 1.24198,4.29916 1.52859,7.64294c4.53991,0.75665 4.53991,0.75665 9.17153,1.52859c0.15763,-0.94581 0.31527,-1.89163 0.47768,-2.8661c1.0509,-3.24825 1.0509,-3.24825 5.63667,-6.30543c1.5133,0 3.02661,0 4.58577,0c0.37833,1.70247 0.75665,3.40493 1.14644,5.15899c1.4084,6.18137 1.4084,6.18137 8.02509,8.59831c-24.71728,0 -49.43455,0 -74.90084,0c0.50443,-1.5133 1.00887,-3.02661 1.52859,-4.58577c2.52217,0 5.04434,0 7.64294,0c0.50443,-1.5133 1.00887,-3.02661 1.52859,-4.58577c0.50443,0.50443 1.00887,1.00887 1.52859,1.52859c1.5133,-0.50443 3.02661,-1.00887 4.58577,-1.52859c1.5133,0 3.02661,0 4.58577,0c1.84433,-0.18916 1.84433,-0.18916 3.72593,-0.38215c5.1773,0.50511 6.75624,2.61488 10.03136,6.4965c0.50443,-0.50443 1.00887,-1.00887 1.52859,-1.52859c-0.50443,-1.00887 -1.00887,-2.01774 -1.52859,-3.05718c1.5133,0 3.02661,0 4.58577,0c0.50443,-1.00887 1.00887,-2.01774 1.52859,-3.05718c-3.02661,0.50443 -6.05321,1.00887 -9.17153,1.52859c-0.40985,-1.38719 -0.81971,-2.77439 -1.24198,-4.20362c-1.65586,-4.53184 -3.3187,-7.43961 -6.40096,-11.08227l-0.00001,0.00002z" fill="#69B443" id="svg_25" stroke="null"/>
  <path d="m447.45564,341.31914c2.41832,0.01021 4.83662,0.02849 7.25482,0.05375c1.23252,0.00689 2.46503,0.01379 3.73489,0.0209c3.05424,0.01807 6.10842,0.04549 9.16257,0.07464c-0.79208,8.60366 -4.13754,14.92116 -8.21616,22.35561c-0.61084,1.14679 -1.22166,2.29359 -1.85101,3.47514c-2.93758,5.44998 -5.8626,10.6346 -9.80447,15.44114c-3.78326,-1.5133 -3.78326,-1.5133 -7.64294,-3.05718c2.01774,-4.03547 4.03547,-8.07095 6.11435,-12.22871c-2.01774,-1.00887 -4.03547,-2.01774 -6.11435,-3.05718c0.50443,-2.01774 1.00887,-4.03547 1.52859,-6.11435c3.02661,0.75665 3.02661,0.75665 6.11435,1.52859c-0.50443,1.00887 -1.00887,2.01774 -1.52859,3.05718c3.02661,-1.00887 6.05321,-2.01774 9.17153,-3.05718c0,-1.5133 0,-3.02661 0,-4.58577c-1.00887,-0.50443 -2.01774,-1.00887 -3.05718,-1.52859c0,1.00887 0,2.01774 0,3.05718c-1.00887,0 -2.01774,0 -3.05718,0c0,-1.00887 0,-2.01774 0,-3.05718c-2.52217,0 -5.04434,0 -7.64294,0c0,-1.00887 0,-2.01774 0,-3.05718c1.5133,0 3.02661,0 4.58577,0c-0.40777,-3.03413 -0.40777,-3.03413 -1.52859,-6.11435c-1.5133,-0.50443 -3.02661,-1.00887 -4.58577,-1.52859c1.52859,-1.52859 1.52859,-1.52859 7.36231,-1.67787z" fill="#6DB944" id="svg_26" stroke="null"/>
  <path d="m421.61891,316.81992c5.76854,3.11112 9.87856,6.65046 12.07346,12.89747c0.09457,0.85123 0.18916,1.70247 0.28661,2.57949c-1.734,0.72513 -3.46799,1.45025 -5.25452,2.19735c-5.07476,1.83235 -5.07476,1.83235 -6.97419,3.91701c-3.34211,0.11096 -6.68759,0.128 -10.03136,0.09554c-2.74582,-0.0207 -2.74582,-0.0207 -5.54711,-0.04179c-1.41674,-0.01775 -2.8335,-0.03548 -4.29318,-0.05375c1.5133,-1.00887 3.02661,-2.01774 4.58577,-3.05718c-0.50443,-1.00887 -1.00887,-2.01774 -1.52859,-3.05718c1.00887,-0.50443 2.01774,-1.00887 3.05718,-1.52859c-1.5133,-0.50443 -3.02661,-1.00887 -4.58577,-1.52859c-3.05718,-4.58577 -3.05718,-4.58577 -3.05718,-9.17153c7.95685,-5.92531 11.98841,-7.04912 21.26887,-3.24825l0.00001,0z" fill="#66B042" id="svg_27" stroke="null"/>
  <path d="m300.99178,324.65394c6.44691,3.34284 10.0802,7.02302 15.28589,12.22871c-22.19511,0 -44.39021,0 -67.2579,0c0,-1.00887 0,-2.01774 0,-3.05718c7.10123,-1.88023 13.55016,-3.24224 20.92256,-2.8661c5.40001,0.16758 6.34552,-0.02323 11.08227,-3.24825c6.60353,-4.31252 12.28063,-4.30906 19.96719,-3.05718l-0.00001,0z" fill="#61AC3F" id="svg_29" stroke="null"/>
  <path d="m473.72228,289.4964c3.22581,2.37257 6.14503,5.01212 9.17153,7.64294c-0.94588,4.20596 -1.90273,8.4089 -2.8661,12.61086c-0.266,1.18817 -0.53203,2.37636 -0.80609,3.60054c-0.26602,1.15271 -0.53203,2.30542 -0.8061,3.49307c-0.24014,1.05664 -0.4803,2.11329 -0.72772,3.20197c-0.9748,3.30484 -2.34216,6.16127 -3.96553,9.19393c-3.78326,-1.5133 -3.78326,-1.5133 -7.64294,-3.05718c0.28374,-0.88276 0.56749,-1.76552 0.85983,-2.67503c0.73027,-3.75564 0.29775,-5.95229 -0.85983,-9.55368c1.00887,0 2.01774,0 3.05718,0c-0.37833,-2.17538 -0.37833,-2.17538 -0.76429,-4.39469c-0.76429,-4.77684 -0.76429,-4.77684 -0.76429,-7.83402c-1.00887,-1.00887 -2.01774,-2.01774 -3.05718,-3.05718c1.00887,-0.50443 2.01774,-1.00887 3.05718,-1.52859c-2.52217,0 -5.04434,0 -7.64294,0c0,-1.00887 0,-2.01774 0,-3.05718c-1.00887,0 -2.01774,0 -3.05718,0c0,-1.00887 0,-2.01774 0,-3.05718c6.2376,-3.11879 10.11612,-3.5791 16.81447,-1.52859l0,0.00001z" fill="#6CB742" id="svg_30" stroke="null"/>
  <path d="m337.6779,388.85466c0.50443,1.00887 1.00887,2.01774 1.52859,3.05718c1.00887,0.50443 2.01774,1.00887 3.05718,1.52859c-1.71893,4.54287 -3.39796,8.15412 -6.11435,12.22871c0.50443,1.00887 1.00887,2.01774 1.52859,3.05718c-1.19803,1.13498 -2.39606,2.26995 -3.6304,3.43932c-4.36609,4.16148 -4.36609,4.16148 -7.06972,10.31797c-11.09755,0 -22.19511,0 -33.62895,0c6.55893,-4.37262 13.81445,-6.08037 21.31664,-8.38932c1.54089,-0.76257 3.08179,-1.52513 4.66936,-2.3108c1.35418,-3.87508 1.35418,-3.87508 1.52859,-7.64294c1.00887,-0.50443 2.01774,-1.00887 3.05718,-1.52859c1.00207,-3.86325 1.00207,-3.86325 1.52859,-7.64294c1.00887,0.50443 2.01774,1.00887 3.05718,1.52859c-0.50443,1.00887 -1.00887,2.01774 -1.52859,3.05718c2.52217,-0.50443 5.04434,-1.00887 7.64294,-1.52859c-1.00887,-0.50443 -2.01774,-1.00887 -3.05718,-1.52859c0,-1.00887 0,-2.01774 0,-3.05718c2.01774,-0.50443 4.03547,-1.00887 6.11435,-1.52859c0,-1.00887 0,-2.01774 0,-3.05718z" fill="#5D9939" id="svg_31" stroke="null"/>
  <path d="m163.41881,148.86626c2.48396,3.82147 2.48396,3.82147 4.58577,7.64294c-2.31725,1.89163 -2.31725,1.89163 -4.6813,3.82147c-5.29922,4.51771 -9.71803,9.48657 -14.21707,14.78433c-3.06763,3.42636 -6.45899,6.17076 -10.14481,8.9088c-1.00887,1.00887 -2.01774,2.01774 -3.05718,3.05718c-2.01774,-2.52217 -4.03547,-5.04434 -6.11435,-7.64294c4.28816,-4.3636 8.5862,-8.71719 12.89374,-13.06167c1.46468,-1.48009 2.92661,-2.96288 4.38573,-4.44844c2.09484,-2.13182 4.20035,-4.25313 6.30618,-6.37409c1.26477,-1.28079 2.52955,-2.56158 3.83266,-3.88118c3.15346,-2.8064 3.15346,-2.8064 6.21064,-2.8064l-0.00001,0z" fill="#cdcfc8" id="svg_32" stroke="null"/>
  <path d="m417.16451,291.02499c8.46603,4.70334 8.46603,4.70334 10.70012,9.17153c3.24943,0.7131 3.24943,0.7131 6.97419,0.95537c1.26306,0.11429 2.52611,0.22857 3.82745,0.34632c0.97536,0.07489 1.95074,0.14976 2.95566,0.2269c0.75665,2.26995 0.75665,2.26995 1.52859,4.58577c-9.58876,2.10953 -9.58876,2.10953 -14.90374,-0.66876c-8.80441,-4.23289 -18.876,-3.48934 -28.18335,-0.85983c-1.41871,0.50443 -2.83744,1.00887 -4.29916,1.52859c-1.5133,-1.5133 -3.02661,-3.02661 -4.58577,-4.58577c8.6916,-7.50638 13.88981,-11.95145 25.98601,-10.70012z" fill="#5E9F3A" id="svg_33" stroke="null"/>
  <path d="m449.26487,353.69712c0,1.00887 0,2.01774 0,3.05718c1.00887,0 2.01774,0 3.05718,0c0,-1.00887 0,-2.01774 0,-3.05718c1.5133,0.50443 3.02661,1.00887 4.58577,1.52859c-0.50443,1.5133 -1.00887,3.02661 -1.52859,4.58577c-1.00887,0 -2.01774,0 -3.05718,0c-0.50443,1.00887 -1.00887,2.01774 -1.52859,3.05718c-1.5133,0 -3.02661,0 -4.58577,0c0,-1.00887 0,-2.01774 0,-3.05718c-1.5133,0 -3.02661,0 -4.58577,0c-0.50443,1.5133 -1.00887,3.02661 -1.52859,4.58577c2.52217,0 5.04434,0 7.64294,0c-1.69583,5.32974 -3.45978,10.35594 -6.11435,15.28589c1.5133,1.5133 3.02661,3.02661 4.58577,4.58577c-3.02661,0 -6.05321,0 -9.17153,0c0.50443,-2.52217 1.00887,-5.04434 1.52859,-7.64294c-1.00887,-0.50443 -2.01774,-1.00887 -3.05718,-1.52859c0,1.5133 0,3.02661 0,4.58577c-2.52217,0 -5.04434,0 -7.64294,0c0,-5.04434 0,-10.08868 0,-15.28589c1.00887,0 2.01774,0 3.05718,0c0,-1.00887 0,-2.01774 0,-3.05718c1.16651,-0.40985 2.33301,-0.81971 3.53486,-1.24198c4.11459,-1.50775 4.11459,-1.50775 6.4965,-4.29916c2.19735,-2.10181 2.19735,-2.10181 8.3117,-2.10181l0,-0.00001z" fill="#63A73F" id="svg_34" stroke="null"/>
  <path d="m57.9462,310.89664c3.05718,3.05718 3.05718,3.05718 3.05718,7.64294c1.00887,-1.5133 2.01774,-3.02661 3.05718,-4.58577c1.00887,0.50443 2.01774,1.00887 3.05718,1.52859c-0.50443,2.01774 -1.00887,4.03547 -1.52859,6.11435c-1.00887,0 -2.01774,0 -3.05718,0c0,1.5133 0,3.02661 0,4.58577c1.5133,-0.50443 3.02661,-1.00887 4.58577,-1.52859c0.50443,1.00887 1.00887,2.01774 1.52859,3.05718c-3.26896,3.26896 -4.78869,3.7092 -9.17153,4.58577c1.00887,1.00887 2.01774,2.01774 3.05718,3.05718c-2.01774,0.50443 -4.03547,1.00887 -6.11435,1.52859c0.06305,1.70247 0.12611,3.40493 0.19107,5.15899c-0.19107,5.54113 -0.19107,5.54113 -3.24825,8.59831c-1.5133,0.50443 -3.02661,1.00887 -4.58577,1.52859c1.00887,-3.02661 2.01774,-6.05321 3.05718,-9.17153c-1.5133,-0.50443 -3.02661,-1.00887 -4.58577,-1.52859c0,-1.00887 0,-2.01774 0,-3.05718c1.00887,-0.50443 2.01774,-1.00887 3.05718,-1.52859c1.59112,-2.50907 3.12602,-5.05523 4.58577,-7.64294c-1.00887,-0.50443 -2.01774,-1.00887 -3.05718,-1.52859c-0.50443,1.00887 -1.00887,2.01774 -1.52859,3.05718c0,-1.00887 0,-2.01774 0,-3.05718c-1.00887,0 -2.01774,0 -3.05718,0c0,-4.53991 0,-9.07982 0,-13.7573c2.01774,0.50443 4.03547,1.00887 6.11435,1.52859c0,1.00887 0,2.01774 0,3.05718c2.01774,-1.00887 4.03547,-2.01774 6.11435,-3.05718c-1.5133,0 -3.02661,0 -4.58577,0c1.52859,-3.05718 1.52859,-3.05718 3.05718,-4.58577z" fill="#599437" id="svg_35" stroke="null"/>
  <path d="m455.66583,286.34369c1.37733,0.01379 2.75468,0.02759 4.17377,0.04179c1.05025,0.01775 2.10049,0.03548 3.18257,0.05375c-4.58577,3.05718 -4.58577,3.05718 -7.64294,3.05718c0,1.00887 0,2.01774 0,3.05718c-1.5133,0.50443 -3.02661,1.00887 -4.58577,1.52859c-0.50443,1.00887 -1.00887,2.01774 -1.52859,3.05718c2.01774,-0.50443 4.03547,-1.00887 6.11435,-1.52859c0.50443,2.52217 1.00887,5.04434 1.52859,7.64294c-5.04434,0.50443 -10.08868,1.00887 -15.28589,1.52859c0,-1.00887 0,-2.01774 0,-3.05718c-5.04434,0 -10.08868,0 -15.28589,0c0,-1.00887 0,-2.01774 0,-3.05718c3.51695,-2.58547 3.51695,-2.58547 8.12063,-5.4456c1.50739,-0.94779 3.01479,-1.89557 4.56785,-2.87208c5.84442,-3.37471 10.00744,-4.09272 16.64132,-4.00657z" fill="#6DB943" id="svg_36" stroke="null"/>
  <path d="m407.99298,355.22571c4.53991,0.50443 9.07982,1.00887 13.7573,1.52859c1.59661,4.78983 1.42807,6.09858 0,10.70012c-0.50443,-0.50443 -1.00887,-1.00887 -1.52859,-1.52859c-0.50443,1.00887 -1.00887,2.01774 -1.52859,3.05718c1.00887,0.50443 2.01774,1.00887 3.05718,1.52859c-1.5133,1.00887 -3.02661,2.01774 -4.58577,3.05718c0,1.5133 0,3.02661 0,4.58577c-4.39469,0.28661 -4.39469,0.28661 -9.17153,0c-1.00887,-1.5133 -2.01774,-3.02661 -3.05718,-4.58577c-1.5133,0.75665 -1.5133,0.75665 -3.05718,1.52859c-2.01774,-1.5133 -4.03547,-3.02661 -6.11435,-4.58577c1.00887,-1.00887 2.01774,-2.01774 3.05718,-3.05718c1.5133,0 3.02661,0 4.58577,0c0.50443,-1.00887 1.00887,-2.01774 1.52859,-3.05718c0.50443,0 1.00887,0 1.52859,0c1.56844,-2.0076 3.09886,-4.04562 4.58577,-6.11435c-1.00887,-1.00887 -2.01774,-2.01774 -3.05718,-3.05718l-0.00001,0z" fill="#67B241" id="svg_37" stroke="null"/>
  <path d="m285.70589,307.83946c16.64633,0 33.29266,0 50.44342,0c-5.09529,5.09529 -10.1906,10.1906 -15.28589,15.28589c-0.7803,-0.6266 -1.5606,-1.2532 -2.36453,-1.8988c-8.48406,-6.28782 -15.42785,-8.56069 -25.90838,-9.68503c-3.82745,-0.64488 -3.82745,-0.64488 -6.88463,-3.70206l0.00001,0z" fill="#68D9C9" id="svg_38" stroke="null"/>
  <path d="m80.87503,300.19652c18.06951,-1.05259 18.06951,-1.05259 23.8842,2.77057c3.6304,3.34379 3.6304,3.34379 6.68757,7.92955c-10.31797,1.71966 -10.31797,1.71966 -13.7573,0c0.50443,-1.5133 1.00887,-3.02661 1.52859,-4.58577c-1.5133,0 -3.02661,0 -4.58577,0c0,1.00887 0,2.01774 0,3.05718c-1.00887,0 -2.01774,0 -3.05718,0c0,-2.01774 0,-4.03547 0,-6.11435c-1.5133,2.26995 -1.5133,2.26995 -3.05718,4.58577c0.44138,0.78819 0.88276,1.57636 1.33751,2.38842c2.15959,4.67912 3.43909,9.4573 4.77684,14.42605c-2.52217,0.50443 -5.04434,1.00887 -7.64294,1.52859c0,-1.00887 0,-2.01774 0,-3.05718c-1.00887,0 -2.01774,0 -3.05718,0c-0.50443,-1.5133 -1.00887,-3.02661 -1.52859,-4.58577c1.5133,-0.50443 3.02661,-1.00887 4.58577,-1.52859c-4.15172,-4.39347 -4.15172,-4.39347 -9.17153,-7.64294c0.50443,-1.5133 1.00887,-3.02661 1.52859,-4.58577c2.01774,1.5133 4.03547,3.02661 6.11435,4.58577c0,-1.5133 0,-3.02661 0,-4.58577c-1.00887,0 -2.01774,0 -3.05718,0c-0.50443,-1.5133 -1.00887,-3.02661 -1.52859,-4.58577l0.00002,0.00001z" fill="#6AB342" id="svg_39" stroke="null"/>
  <path d="m320.86343,125.93743c10.70012,9.17153 10.70012,9.17153 15.28589,13.7573c-2.43186,6.32284 -7.03877,11.05495 -12.22871,15.28589c-1.00887,0 -2.01774,0 -3.05718,0c0,-9.58425 0,-19.1685 0,-29.04318l0,-0.00001z" fill="#AAB5B6" id="svg_40" stroke="null"/>
  <path d="m411.05015,356.7543c0,1.5133 0,3.02661 0,4.58577c-1.00887,0 -2.01774,0 -3.05718,0c-0.50443,2.52217 -1.00887,5.04434 -1.52859,7.64294c-1.00887,-0.50443 -2.01774,-1.00887 -3.05718,-1.52859c-3.23578,1.36295 -3.23578,1.36295 -6.11435,3.05718c1.5133,1.00887 3.02661,2.01774 4.58577,3.05718c1.00887,-1.00887 2.01774,-2.01774 3.05718,-3.05718c1.00887,2.52217 2.01774,5.04434 3.05718,7.64294c-8.59831,1.71966 -8.59831,1.71966 -13.7573,0c-0.50443,-5.54878 -1.00887,-11.09755 -1.52859,-16.81447c6.27421,-4.56307 10.66565,-5.03737 18.34306,-4.58577z" fill="#6BB844" id="svg_41" stroke="null"/>
  <path d="m169.53316,300.19652c11.06071,0.92172 21.39062,3.23306 32.10036,6.11435c-4.46845,2.97896 -6.8952,3.79212 -12.03763,4.77684c-1.28868,0.25616 -2.57734,0.51232 -3.90507,0.77623c-3.97033,0.5672 -7.57061,0.87325 -11.57189,0.56128c-1.00887,-1.00887 -2.01774,-2.01774 -3.05718,-3.05718c-1.5133,0.50443 -3.02661,1.00887 -4.58577,1.52859c0,-2.01774 0,-4.03547 0,-6.11435c2.01774,0 4.03547,0 6.11435,0c0,-1.00887 0,-2.01774 0,-3.05718c-1.00887,-0.50443 -2.01774,-1.00887 -3.05718,-1.52859l0.00001,0.00001z" fill="#6DBC40" id="svg_42" stroke="null"/>
  <path d="m354.68345,312.6163c2.8661,1.33751 2.8661,1.33751 5.92328,5.92328c1.5133,-0.50443 3.02661,-1.00887 4.58577,-1.52859c-1.00887,2.52217 -2.01774,5.04434 -3.05718,7.64294c1.00887,0.50443 2.01774,1.00887 3.05718,1.52859c-0.50443,2.01774 -1.00887,4.03547 -1.52859,6.11435c1.00887,0.50443 2.01774,1.00887 3.05718,1.52859c-1.00887,0 -2.01774,0 -3.05718,0c-0.50443,1.00887 -1.00887,2.01774 -1.52859,3.05718c-3.05718,-8.59831 -3.05718,-8.59831 -3.05718,-13.7573c-1.00887,0 -2.01774,0 -3.05718,0c0,-1.00887 0,-2.01774 0,-3.05718c-1.5133,0.75665 -1.5133,0.75665 -3.05718,1.52859c-0.62258,3.54873 -1.13787,7.11845 -1.52859,10.70012c-1.00887,0 -2.01774,0 -3.05718,0c0,-2.01774 0,-4.03547 0,-6.11435c-1.5133,-1.00887 -3.02661,-2.01774 -4.58577,-3.05718c0.57333,-4.15668 1.28736,-5.87313 4.29916,-8.88492c3.34379,-1.8152 3.34379,-1.8152 6.59204,-1.62413l0.00001,0.00001z" fill="#6BB543" id="svg_43" stroke="null"/>
  <path d="m247.49118,382.7403c8.52223,2.51794 8.52223,2.51794 11.98987,5.39783c4.14605,2.82413 7.11278,3.00002 12.0854,3.29602c2.25814,0.15073 2.25814,0.15073 4.56189,0.30453c1.14285,0.05714 2.28571,0.11428 3.4632,0.17316c-1.52859,4.58577 -1.52859,4.58577 -3.05718,6.11435c0.50443,1.00887 1.00887,2.01774 1.52859,3.05718c-3.6304,-0.47768 -3.6304,-0.47768 -7.64294,-1.52859c-1.00887,-1.5133 -2.01774,-3.02661 -3.05718,-4.58577c-3.91751,-1.11533 -3.91751,-1.11533 -7.64294,-1.52859c-0.50443,1.00887 -1.00887,2.01774 -1.52859,3.05718c-1.00887,0 -2.01774,0 -3.05718,0c0,-1.00887 0,-2.01774 0,-3.05718c-3.02661,1.5133 -3.02661,1.5133 -6.11435,3.05718c-0.40985,-0.97733 -0.81971,-1.95468 -1.24198,-2.96164c-1.64198,-3.65917 -1.64198,-3.65917 -6.40096,-4.6813c2.01774,-2.01774 4.03547,-4.03547 6.11435,-6.11435l0,-0.00001z" fill="#6BB743" id="svg_44" stroke="null"/>
  <path d="m411.05015,313.95382c1.5133,1.00887 3.02661,2.01774 4.58577,3.05718c-1.00887,0 -2.01774,0 -3.05718,0c-0.50443,1.5133 -1.00887,3.02661 -1.52859,4.58577c-1.5133,0 -3.02661,0 -4.58577,0c3.02661,1.00887 6.05321,2.01774 9.17153,3.05718c0,1.00887 0,2.01774 0,3.05718c1.00887,0.50443 2.01774,1.00887 3.05718,1.52859c-0.50443,2.52217 -1.00887,5.04434 -1.52859,7.64294c-2.01774,-1.00887 -4.03547,-2.01774 -6.11435,-3.05718c-0.50443,1.5133 -1.00887,3.02661 -1.52859,4.58577c-2.52217,0 -5.04434,0 -7.64294,0c1.5133,-1.00887 3.02661,-2.01774 4.58577,-3.05718c-0.50443,-1.00887 -1.00887,-2.01774 -1.52859,-3.05718c1.00887,-0.50443 2.01774,-1.00887 3.05718,-1.52859c-1.5133,-0.50443 -3.02661,-1.00887 -4.58577,-1.52859c-3.05718,-4.58577 -3.05718,-4.58577 -3.05718,-9.17153c3.53104,-2.01774 7.06208,-4.03547 10.70012,-6.11435l0,-0.00001z" fill="#5EA33B" id="svg_46" stroke="null"/>
  <path d="m206.21929,394.96901c1.14679,0.75862 2.2936,1.51725 3.47515,2.29886c5.38971,2.95739 9.24168,2.74466 15.34559,2.57352c1.91725,-0.04138 3.83449,-0.08276 5.80983,-0.12539c1.45616,-0.05321 2.91233,-0.10641 4.41261,-0.16122c0.75665,1.5133 0.75665,1.5133 1.52859,3.05718c-16.64633,0 -33.29266,0 -50.44342,0c7.48544,-7.48544 9.52115,-8.34467 19.87165,-7.64294l0,-0.00001z" fill="#5C9D3E" id="svg_47" stroke="null"/>
  <path d="m304.04895,388.85466c0.37833,1.70247 0.75665,3.40493 1.14644,5.15899c1.4084,6.18137 1.4084,6.18137 8.02509,8.59831c-10.08868,0 -20.17737,0 -30.57177,0c1.00887,-2.01774 2.01774,-4.03547 3.05718,-6.11435c2.52217,0.50443 5.04434,1.00887 7.64294,1.52859c0.23646,-1.41871 0.23646,-1.41871 0.47768,-2.8661c1.78027,-5.50267 4.7426,-6.30543 10.22244,-6.30543l0,-0.00001z" fill="#4E8434" id="svg_48" stroke="null"/>
  <path d="m368.24967,310.89664c8.61314,-0.84031 12.82467,1.60428 19.87165,6.11435c-3.5115,2.6639 -7.02947,5.19584 -10.70012,7.64294c0,1.5133 0,3.02661 0,4.58577c-3.53104,-1.00887 -7.06208,-2.01774 -10.70012,-3.05718c0,-1.5133 0,-3.02661 0,-4.58577c2.01774,-0.50443 4.03547,-1.00887 6.11435,-1.52859c-1.5133,0 -3.02661,0 -4.58577,0c-1.52859,-4.58577 -1.52859,-4.58577 0,-9.17153l0.00001,0.00001z" fill="#6AB542" id="svg_49" stroke="null"/>
  <path d="m71.70349,349.11136c14.60979,-1.39881 24.15259,1.70474 36.68613,9.17153c0,0.50443 0,1.00887 0,1.52859c-6.55764,0 -13.11529,0 -19.87165,0c-1.00887,-2.01774 -2.01774,-4.03547 -3.05718,-6.11435c-1.00887,1.00887 -2.01774,2.01774 -3.05718,3.05718c0,-1.00887 0,-2.01774 0,-3.05718c-3.53104,-0.50443 -7.06208,-1.00887 -10.70012,-1.52859c0,-1.00887 0,-2.01774 0,-3.05718z" fill="#6EBA44" id="svg_50" stroke="null"/>
  <path d="m348.37802,376.62595c3.78326,1.5133 3.78326,1.5133 7.64294,3.05718c0,2.01774 0,4.03547 0,6.11435c-4.60154,1.42807 -5.91029,1.59661 -10.70012,0c0,1.00887 0,2.01774 0,3.05718c5.54702,0.23157 5.54702,0.23157 10.70012,-1.52859c0,6.11435 0,6.11435 -3.05718,10.70012c-1.00887,-1.00887 -2.01774,-2.01774 -3.05718,-3.05718c-1.00887,0 -2.01774,0 -3.05718,0c0,1.00887 0,2.01774 0,3.05718c1.5133,0 3.02661,0 4.58577,0c0,1.5133 0,3.02661 0,4.58577c-3.02661,-0.50443 -6.05321,-1.00887 -9.17153,-1.52859c2.8661,-7.2608 2.8661,-7.2608 4.58577,-10.70012c-1.5133,-0.50443 -3.02661,-1.00887 -4.58577,-1.52859c0.50443,-1.5133 1.00887,-3.02661 1.52859,-4.58577c1.00887,0 2.01774,0 3.05718,0c0.50443,-2.52217 1.00887,-5.04434 1.52859,-7.64294z" fill="#5D9D3B" id="svg_51" stroke="null"/>
  <path d="m336.14931,370.51159c9.9632,-0.54126 17.0823,-0.05965 25.98601,4.58577c-4.72043,2.69739 -6.4707,3.05718 -12.22871,3.05718c-1.00887,2.01774 -2.01774,4.03547 -3.05718,6.11435c-1.00887,0 -2.01774,0 -3.05718,0c0.50443,-2.52217 1.00887,-5.04434 1.52859,-7.64294c-1.00887,0 -2.01774,0 -3.05718,0c0,-1.5133 0,-3.02661 0,-4.58577c-1.00887,0 -2.01774,0 -3.05718,0c0,2.52217 0,5.04434 0,7.64294c-1.5133,0.50443 -3.02661,1.00887 -4.58577,1.52859c0.50443,-3.53104 1.00887,-7.06208 1.52859,-10.70012l0.00001,0z" fill="#74C947" id="svg_52" stroke="null"/>
  <path d="m288.76307,93.83707c1.5133,1.5133 3.02661,3.02661 4.58577,4.58577c-7.64294,7.64294 -7.64294,7.64294 -10.1437,9.53763c-3.23472,4.17497 -2.75734,7.96257 -2.86722,13.17027c-0.02744,1.01138 -0.05488,2.02274 -0.08316,3.06476c-0.08268,3.22373 -0.1345,6.44711 -0.18554,9.67149c-0.0507,2.18843 -0.10342,4.37682 -0.15824,6.56517c-0.12979,5.35868 -0.23193,10.71748 -0.31944,16.07705c-0.50443,0 -1.00887,0 -1.52859,0c-0.52435,-6.95708 -0.9626,-13.9126 -1.32483,-20.88002c-0.13467,-2.36447 -0.29202,-4.72777 -0.47321,-7.08912c-1.48603,-19.67399 -1.48603,-19.67399 2.99822,-26.82719c3.01568,-3.01568 5.94323,-5.53378 9.49993,-7.87581l0.00001,0z" fill="#cdcfc8" id="svg_53" stroke="null"/>
  <path d="m415.63592,394.96901c6.60006,0.77648 12.27918,1.82946 18.34306,4.58577c-5.28704,8.96497 -12.40178,15.74625 -19.87165,22.92883c-1.00887,-0.50443 -2.01774,-1.00887 -3.05718,-1.52859c2.52217,-2.52217 5.04434,-5.04434 7.64294,-7.64294c-1.5133,0 -3.02661,0 -4.58577,0c1.00887,-2.01774 2.01774,-4.03547 3.05718,-6.11435c0,1.00887 0,2.01774 0,3.05718c2.01774,-0.50443 4.03547,-1.00887 6.11435,-1.52859c0,-3.02661 0,-6.05321 0,-9.17153c-1.00887,0 -2.01774,0 -3.05718,0c0,-1.00887 0,-2.01774 0,-3.05718c-1.5133,-0.50443 -3.02661,-1.00887 -4.58577,-1.52859l0.00002,-0.00001z" fill="#6BB144" id="svg_54" stroke="null"/>
  <path d="m409.52156,394.96901c-0.50443,1.5133 -1.00887,3.02661 -1.52859,4.58577c-2.01774,-0.50443 -4.03547,-1.00887 -6.11435,-1.52859c0.50443,3.02661 1.00887,6.05321 1.52859,9.17153c-2.01774,-1.5133 -4.03547,-3.02661 -6.11435,-4.58577c1.00887,2.01774 2.01774,4.03547 3.05718,6.11435c-4.06086,2.09592 -6.21383,3.05718 -10.70012,3.05718c-0.50443,-1.00887 -1.00887,-2.01774 -1.52859,-3.05718c-1.5133,0.75665 -1.5133,0.75665 -3.05718,1.52859c0,-2.01774 0,-4.03547 0,-6.11435c-2.01774,-1.00887 -4.03547,-2.01774 -6.11435,-3.05718c2.01774,-1.00887 4.03547,-2.01774 6.11435,-3.05718c1.00887,2.01774 2.01774,4.03547 3.05718,6.11435c5.03321,-0.58076 6.70592,-2.03388 10.70012,-5.4456c4.58577,-3.72593 4.58577,-3.72593 10.70012,-3.72593l-0.00001,0.00001z" fill="#6AB043" id="svg_57" stroke="null"/>
  <path d="m455.37922,312.42523c-0.50443,2.52217 -1.00887,5.04434 -1.52859,7.64294c2.01774,1.00887 4.03547,2.01774 6.11435,3.05718c0.50443,-0.50443 1.00887,-1.00887 1.52859,-1.52859c1.00887,0.50443 2.01774,1.00887 3.05718,1.52859c0,1.00887 0,2.01774 0,3.05718c-5.54878,0.50443 -11.09755,1.00887 -16.81447,1.52859c-3.05718,-6.11435 -3.05718,-6.11435 -2.8661,-9.3626c2.14137,-4.58867 5.5688,-5.92328 10.50905,-5.92328l-0.00001,-0.00001z" fill="#70BC44" id="svg_59" stroke="null"/>
  <path d="m77.81785,309.36805c3.72593,1.24198 3.72593,1.24198 7.64294,3.05718c0.50443,1.5133 1.00887,3.02661 1.52859,4.58577c-1.00887,1.00887 -2.01774,2.01774 -3.05718,3.05718c0,1.00887 0,2.01774 0,3.05718c1.00887,0 2.01774,0 3.05718,0c0.50443,1.5133 1.00887,3.02661 1.52859,4.58577c-5.73221,1.71966 -5.73221,1.71966 -9.17153,0c-0.50443,1.5133 -1.00887,3.02661 -1.52859,4.58577c-1.5133,-1.5133 -3.02661,-3.02661 -4.58577,-4.58577c2.52217,-1.00887 5.04434,-2.01774 7.64294,-3.05718c-1.00887,-1.00887 -2.01774,-2.01774 -3.05718,-3.05718c-1.0509,-5.4456 -1.0509,-5.4456 -1.52859,-10.70012c0.50443,-0.50443 1.00887,-1.00887 1.52859,-1.52859l0.00001,-0.00001z" fill="#599538" id="svg_60" stroke="null"/>
  <path d="m35.01737,307.83946c6.55764,0 13.11529,0 19.87165,0c-1.00887,1.00887 -2.01774,2.01774 -3.05718,3.05718c-1.00887,-0.50443 -2.01774,-1.00887 -3.05718,-1.52859c0,1.00887 0,2.01774 0,3.05718c2.01774,0 4.03547,0 6.11435,0c0,1.00887 0,2.01774 0,3.05718c1.5133,0 3.02661,0 4.58577,0c-0.50443,1.00887 -1.00887,2.01774 -1.52859,3.05718c-1.5133,0 -3.02661,0 -4.58577,0c-0.50443,-1.00887 -1.00887,-2.01774 -1.52859,-3.05718c-1.5133,-0.50443 -3.02661,-1.00887 -4.58577,-1.52859c0.50443,2.52217 1.00887,5.04434 1.52859,7.64294c-1.5133,-1.00887 -3.02661,-2.01774 -4.58577,-3.05718c-1.5133,0 -3.02661,0 -4.58577,0c1.00887,-1.5133 2.01774,-3.02661 3.05718,-4.58577c-0.50443,-1.00887 -1.00887,-2.01774 -1.52859,-3.05718c-1.5133,-0.50443 -3.02661,-1.00887 -4.58577,-1.52859c0,1.5133 0,3.02661 0,4.58577c-1.00887,0 -2.01774,0 -3.05718,0c0.50443,-2.01774 1.00887,-4.03547 1.52859,-6.11435l0.00003,0z" fill="#6EB745" id="svg_61" stroke="null"/>
  <path d="m407.99298,393.44042c3.53104,0 7.06208,0 10.70012,0c0.50443,2.01774 1.00887,4.03547 1.52859,6.11435c1.00887,0 2.01774,0 3.05718,0c0.50443,3.02661 1.00887,6.05321 1.52859,9.17153c-2.52217,0.50443 -5.04434,1.00887 -7.64294,1.52859c0,-2.01774 0,-4.03547 0,-6.11435c-1.00887,-0.50443 -2.01774,-1.00887 -3.05718,-1.52859c0.50443,-0.50443 1.00887,-1.00887 1.52859,-1.52859c-1.00887,-0.50443 -2.01774,-1.00887 -3.05718,-1.52859c0,1.00887 0,2.01774 0,3.05718c-1.00887,-0.50443 -2.01774,-1.00887 -3.05718,-1.52859c0.50443,-2.01774 1.00887,-4.03547 1.52859,-6.11435c-1.00887,-0.50443 -2.01774,-1.00887 -3.05718,-1.52859z" fill="#65AA41" id="svg_62" stroke="null"/>
  <path d="m473.72228,289.4964c4.39469,3.91701 4.39469,3.91701 7.64294,7.64294c-2.54681,0.0653 -5.09605,0.06212 -7.64294,0c-0.50443,-0.50443 -1.00887,-1.00887 -1.52859,-1.52859c-1.00887,1.00887 -2.01774,2.01774 -3.05718,3.05718c-3.91701,-0.38215 -3.91701,-0.38215 -7.64294,-1.52859c-0.50443,-1.00887 -1.00887,-2.01774 -1.52859,-3.05718c-1.00887,0 -2.01774,0 -3.05718,0c0,-1.00887 0,-2.01774 0,-3.05718c6.21223,-3.10612 10.14529,-3.61271 16.81447,-1.52859l0.00001,0.00001z" fill="#6FBC44" id="svg_63" stroke="null"/>
  <path d="m449.26487,353.69712c0,1.00887 0,2.01774 0,3.05718c1.00887,0 2.01774,0 3.05718,0c0,-1.00887 0,-2.01774 0,-3.05718c1.5133,0.50443 3.02661,1.00887 4.58577,1.52859c-0.50443,1.5133 -1.00887,3.02661 -1.52859,4.58577c-1.00887,0 -2.01774,0 -3.05718,0c-0.50443,1.00887 -1.00887,2.01774 -1.52859,3.05718c-1.5133,0 -3.02661,0 -4.58577,0c0,-1.00887 0,-2.01774 0,-3.05718c-5.32774,0.98661 -9.21462,3.21208 -13.7573,6.11435c1.00887,0.50443 2.01774,1.00887 3.05718,1.52859c-1.00887,1.00887 -2.01774,2.01774 -3.05718,3.05718c-0.50443,-1.5133 -1.00887,-3.02661 -1.52859,-4.58577c-1.00887,-0.50443 -2.01774,-1.00887 -3.05718,-1.52859c1.00887,0 2.01774,0 3.05718,0c0,-1.00887 0,-2.01774 0,-3.05718c1.16651,-0.40985 2.33301,-0.81971 3.53486,-1.24198c4.11459,-1.50775 4.11459,-1.50775 6.4965,-4.29916c2.19735,-2.10181 2.19735,-2.10181 8.3117,-2.10181l0.00001,0.00001z" fill="#5B9539" id="svg_64" stroke="null"/>
  <path d="m420.22168,356.7543c3.05718,3.05718 3.05718,3.05718 3.24825,7.06972c-0.06305,1.19803 -0.12611,2.39606 -0.19107,3.6304c-1.00887,-0.50443 -2.01774,-1.00887 -3.05718,-1.52859c-0.50443,1.00887 -1.00887,2.01774 -1.52859,3.05718c1.00887,0.50443 2.01774,1.00887 3.05718,1.52859c-1.5133,1.00887 -3.02661,2.01774 -4.58577,3.05718c0,1.5133 0,3.02661 0,4.58577c-3.02661,0 -6.05321,0 -9.17153,0c-0.50443,-2.52217 -1.00887,-5.04434 -1.52859,-7.64294c1.00887,-0.50443 2.01774,-1.00887 3.05718,-1.52859c1.5133,0.50443 3.02661,1.00887 4.58577,1.52859c0.50443,-2.01774 1.00887,-4.03547 1.52859,-6.11435c1.00887,0 2.01774,0 3.05718,0c0.50443,-2.52217 1.00887,-5.04434 1.52859,-7.64294l-0.00001,-0.00002z" fill="#64A53F" id="svg_65" stroke="null"/>
  <path d="m307.10613,310.89664c6.05321,0 12.10642,0 18.34306,0c-0.50443,3.53104 -1.00887,7.06208 -1.52859,10.70012c-5.14222,0 -6.72721,-0.94589 -10.98673,-3.6304c-1.0936,-0.67389 -2.1872,-1.34779 -3.31393,-2.0421c-0.82955,-0.65025 -1.65911,-1.30049 -2.51381,-1.97044c0,-1.00887 0,-2.01774 0,-3.05718z" fill="#6AEADA" id="svg_66" stroke="null"/>
  <path d="m319.33484,381.21171c3.57606,0.43916 7.14449,0.94676 10.70012,1.52859c0,3.05718 0,6.11435 0,9.17153c-2.01774,0 -4.03547,0 -6.11435,0c-0.50443,1.00887 -1.00887,2.01774 -1.52859,3.05718c-1.5133,-1.00887 -3.02661,-2.01774 -4.58577,-3.05718c-0.38215,-4.6813 -0.38215,-4.6813 0,-9.17153c0.50443,-0.50443 1.00887,-1.00887 1.52859,-1.52859z" fill="#69AD41" id="svg_67" stroke="null"/>
  <path d="m388.12132,362.86865c1.00887,0.50443 2.01774,1.00887 3.05718,1.52859c-1.00887,2.01774 -2.01774,4.03547 -3.05718,6.11435c1.5133,2.26995 1.5133,2.26995 3.05718,4.58577c0.19107,4.10808 0.19107,4.10808 0,7.64294c-1.00887,0 -2.01774,0 -3.05718,0c0,-1.5133 0,-3.02661 0,-4.58577c-2.01774,-0.50443 -4.03547,-1.00887 -6.11435,-1.52859c-0.50443,1.5133 -1.00887,3.02661 -1.52859,4.58577c-0.67321,-8.07854 -0.67321,-8.07854 0,-12.22871c3.82147,-3.82147 3.82147,-3.82147 7.64294,-6.11435z" fill="#70C246" id="svg_68" stroke="null"/>
  <path d="m363.66391,381.21171c5.36435,0 10.03495,0.57388 15.28589,1.52859c-0.50443,2.01774 -1.00887,4.03547 -1.52859,6.11435c1.00887,0 2.01774,0 3.05718,0c0.50443,-1.00887 1.00887,-2.01774 1.52859,-3.05718c0,1.5133 0,3.02661 0,4.58577c-2.52217,0 -5.04434,0 -7.64294,0c0,-1.00887 0,-2.01774 0,-3.05718c-1.45025,0.75665 -2.9005,1.5133 -4.39469,2.29288c-4.77684,2.29288 -4.77684,2.29288 -7.83402,2.29288c0.50443,-3.53104 1.00887,-7.06208 1.52859,-10.70012l-0.00001,0.00001z" fill="#6DBE45" id="svg_69" stroke="null"/>
  <path d="m470.66511,294.08217c4.03547,1.00887 8.07095,2.01774 12.22871,3.05718c-1.5133,0.75665 -1.5133,0.75665 -3.05718,1.52859c-0.56689,3.04706 -1.06601,6.10689 -1.52859,9.17153c-0.96769,3.07382 -1.97332,6.13672 -3.05718,9.17153c-1.00887,0 -2.01774,0 -3.05718,0c-1.71966,-7.2608 -1.71966,-7.2608 0,-10.70012c1.5133,0 3.02661,0 4.58577,0c-2.52217,-2.52217 -5.04434,-5.04434 -7.64294,-7.64294c0.50443,-1.5133 1.00887,-3.02661 1.52859,-4.58577z" fill="#64AE3D" id="svg_70" stroke="null"/>
  <path d="m423.27886,318.53958c5.40582,2.56065 7.32371,3.81048 9.64922,9.45814c0.34679,1.41871 0.6936,2.83744 1.0509,4.29916c-5.02441,1.22215 -7.2,1.67623 -12.22871,0c0,-1.00887 0,-2.01774 0,-3.05718c1.5133,0 3.02661,0 4.58577,0c-1.5133,-0.50443 -3.02661,-1.00887 -4.58577,-1.52859c0.50443,-3.02661 1.00887,-6.05321 1.52859,-9.17153z" fill="#61A640" id="svg_71" stroke="null"/>
  <path d="m446.20769,367.45442c3.78326,1.5133 3.78326,1.5133 7.64294,3.05718c-1.71893,4.54287 -3.39796,8.15412 -6.11435,12.22871c-3.78326,-1.5133 -3.78326,-1.5133 -7.64294,-3.05718c2.01774,-4.03547 4.03547,-8.07095 6.11435,-12.22871z" fill="#69B345" id="svg_73" stroke="null"/>
  <path d="m389.64991,361.34006c1.5133,0.50443 3.02661,1.00887 4.58577,1.52859c0,5.04434 0,10.08868 0,15.28589c2.52217,0.50443 5.04434,1.00887 7.64294,1.52859c-3.59889,2.18504 -5.31998,3.18957 -9.55368,2.48396c-0.88276,-0.31527 -1.76552,-0.63054 -2.67503,-0.95537c-1.27313,-7.16138 -1.94501,-12.82101 0,-19.87165l0,-0.00001z" fill="#558D37" id="svg_74" stroke="null"/>
  <path d="m444.6791,303.2537c3.02661,0 6.05321,0 9.17153,0c1.00887,2.01774 2.01774,4.03547 3.05718,6.11435c-2.67503,3.15271 -2.67503,3.15271 -6.11435,6.11435c-3.43932,-0.38215 -3.43932,-0.38215 -6.11435,-1.52859c0.28374,-1.19803 0.56749,-2.39606 0.85983,-3.6304c1.06561,-3.96806 1.06561,-3.96806 -0.85983,-7.06972l-0.00001,0.00001z" fill="#212B1C" id="svg_75" stroke="null"/>
  <path d="m54.88902,329.2397c0.50443,1.00887 1.00887,2.01774 1.52859,3.05718c3.0827,1.73267 3.0827,1.73267 6.11435,3.05718c-2.01774,0.50443 -4.03547,1.00887 -6.11435,1.52859c0.06305,1.70247 0.12611,3.40493 0.19107,5.15899c-0.19107,5.54113 -0.19107,5.54113 -3.24825,8.59831c-1.5133,0.50443 -3.02661,1.00887 -4.58577,1.52859c1.00887,-3.02661 2.01774,-6.05321 3.05718,-9.17153c-1.5133,-0.50443 -3.02661,-1.00887 -4.58577,-1.52859c0,-1.00887 0,-2.01774 0,-3.05718c1.00887,-0.50443 2.01774,-1.00887 3.05718,-1.52859c1.59112,-2.50907 3.12602,-5.05523 4.58577,-7.64294l0,-0.00001z" fill="#538A34" id="svg_77" stroke="null"/>
  <path d="m129.78986,298.66793c3.43596,3.13718 4.58916,4.59596 6.11435,9.17153c1.00887,1.00887 2.01774,2.01774 3.05718,3.05718c0,1.00887 0,2.01774 0,3.05718c-3.02661,0.50443 -6.05321,1.00887 -9.17153,1.52859c-0.59477,-2.22353 -1.16307,-4.45417 -1.71966,-6.68757c-0.31922,-1.24138 -0.63843,-2.48276 -0.96731,-3.76176c-0.12216,-1.09163 -0.24434,-2.18325 -0.37021,-3.30796c1.00887,-1.00887 2.01774,-2.01774 3.05718,-3.05718l0,-0.00001z" fill="#609F3D" id="svg_78" stroke="null"/>
  <path d="m154.24728,226.82427c0,4.58577 0,4.58577 -2.40633,7.43993c-1.06601,1.01281 -2.13201,2.02561 -3.23034,3.06912c-1.67587,1.61084 -1.67587,1.61084 -3.38558,3.25423c-1.05813,1.0069 -2.11627,2.01379 -3.20646,3.0512c-1.38719,1.41871 -2.77439,2.83744 -4.20362,4.29916c-3.0407,2.95623 -6.09055,5.49254 -9.55368,7.92955c0.8592,-5.25701 2.33703,-7.3403 6.4965,-10.60458c4.75828,-3.86306 9.09405,-7.92743 13.37515,-12.32425c3.05718,-3.05718 3.05718,-3.05718 6.11435,-6.11435l0.00001,-0.00001z" fill="#A7B2B2" id="svg_79" stroke="null"/>
  <path d="m383.53556,410.2549c4.00776,1.60311 5.79902,2.52112 8.02509,6.30543c0.37833,0.94581 0.75665,1.89163 1.14644,2.8661c-1.00887,0 -2.01774,0 -3.05718,0c-0.50443,1.00887 -1.00887,2.01774 -1.52859,3.05718c-4.53991,0 -9.07982,0 -13.7573,0c0.50443,-1.00887 1.00887,-2.01774 1.52859,-3.05718c1.00887,0 2.01774,0 3.05718,0c0,-1.00887 0,-2.01774 0,-3.05718c1.5133,0 3.02661,0 4.58577,0c0,-2.01774 0,-4.03547 0,-6.11435z" fill="#5B9D39" id="svg_80" stroke="null"/>
  <path d="m354.49238,390.38325c3.78326,1.5133 3.78326,1.5133 7.64294,3.05718c0,2.52217 0,5.04434 0,7.64294c-3.53104,0 -7.06208,0 -10.70012,0c0,-1.00887 0,-2.01774 0,-3.05718c-1.5133,0 -3.02661,0 -4.58577,0c0,-1.00887 0,-2.01774 0,-3.05718c1.00887,0 2.01774,0 3.05718,0c0.50443,-1.00887 1.00887,-2.01774 1.52859,-3.05718c0.50443,0 1.00887,0 1.52859,0c0.50443,-0.50443 1.00887,-1.00887 1.52859,-1.52859l0,0.00001z" fill="#70BF46" id="svg_81" stroke="null"/>
  <path d="m36.54596,309.36805c2.96164,0.47768 2.96164,0.47768 6.11435,1.52859c1.52859,4.58577 1.52859,4.58577 1.52859,6.11435c1.00887,0.50443 2.01774,1.00887 3.05718,1.52859c0,1.00887 0,2.01774 0,3.05718c-4.03547,0 -8.07095,0 -12.22871,0c-0.50443,-2.52217 -1.00887,-5.04434 -1.52859,-7.64294c1.00887,0 2.01774,0 3.05718,0c0,-1.5133 0,-3.02661 0,-4.58577z" fill="#5C9D3A" id="svg_83" stroke="null"/>
  <path d="m151.1901,298.66793c2.01774,0.50443 4.03547,1.00887 6.11435,1.52859c-1.5133,0.50443 -3.02661,1.00887 -4.58577,1.52859c-0.12611,1.45025 -0.25222,2.9005 -0.38215,4.39469c-1.14644,4.77684 -1.14644,4.77684 -4.01254,6.97419c-3.24825,0.85983 -3.24825,0.85983 -7.83402,-0.66876c0.50443,-3.02661 1.00887,-6.05321 1.52859,-9.17153c4.58577,0 4.58577,0 9.17153,1.52859c0,-2.01774 0,-4.03547 0,-6.11435l0.00001,-0.00001z" fill="#6AB842" id="svg_84" stroke="null"/>
  <path d="m322.39202,405.66913c3.80241,5.70362 2.63017,7.28554 1.52859,13.7573c1.00887,1.00887 2.01774,2.01774 3.05718,3.05718c-3.02661,0 -6.05321,0 -9.17153,0c-1.00887,-2.52217 -2.01774,-5.04434 -3.05718,-7.64294c0.97735,-0.66206 1.95468,-1.32414 2.96164,-2.00627c3.56155,-2.44557 3.56155,-2.44557 4.6813,-7.16526l0,-0.00001z" fill="#66A93D" id="svg_85" stroke="null"/>
  <path d="m82.40361,301.72511c0,1.00887 0,2.01774 0,3.05718c2.01774,-1.00887 4.03547,-2.01774 6.11435,-3.05718c-1.00887,2.52217 -2.01774,5.04434 -3.05718,7.64294c-0.85124,-0.56749 -1.70247,-1.13498 -2.57949,-1.71966c-3.62224,-1.78869 -3.62224,-1.78869 -7.73848,0c-1.70247,0.85123 -1.70247,0.85123 -3.43932,1.71966c-1.00887,-1.5133 -2.01774,-3.02661 -3.05718,-4.58577c8.59831,-4.77684 8.59831,-4.77684 13.7573,-3.05718l0,0.00001z" fill="#599F38" id="svg_86" stroke="null"/>
  <path d="m397.29286,402.61195c1.5133,0.50443 3.02661,1.00887 4.58577,1.52859c1.33751,2.8661 1.33751,2.8661 1.52859,6.11435c-2.19735,2.67503 -2.19735,2.67503 -4.58577,4.58577c1.00887,2.01774 2.01774,4.03547 3.05718,6.11435c-2.01774,0 -4.03547,0 -6.11435,0c0,-2.01774 0,-4.03547 0,-6.11435c-1.00887,0 -2.01774,0 -3.05718,0c-0.50443,-2.52217 -1.00887,-5.04434 -1.52859,-7.64294c2.26995,1.5133 2.26995,1.5133 4.58577,3.05718c1.00887,-1.00887 2.01774,-2.01774 3.05718,-3.05718c-0.50443,-1.5133 -1.00887,-3.02661 -1.52859,-4.58577l-0.00001,0z" fill="#5D9F3A" id="svg_87" stroke="null"/>
  <path d="m304.04895,388.85466c0.50443,3.53104 1.00887,7.06208 1.52859,10.70012c-4.03547,-0.50443 -8.07095,-1.00887 -12.22871,-1.52859c0.47768,-2.8661 0.47768,-2.8661 1.52859,-6.11435c4.58577,-3.05718 4.58577,-3.05718 9.17153,-3.05718z" fill="#5BA53A" id="svg_88" stroke="null"/>
  <path d="m59.47479,349.11136c2.01774,1.5133 4.03547,3.02661 6.11435,4.58577c-1.00887,1.00887 -2.01774,2.01774 -3.05718,3.05718c2.01774,1.00887 4.03547,2.01774 6.11435,3.05718c0,0.50443 0,1.00887 0,1.52859c-4.03547,0 -8.07095,0 -12.22871,0c-1.0509,-3.53486 -1.0509,-3.53486 -1.52859,-7.64294c2.19735,-2.77057 2.19735,-2.77057 4.58577,-4.58577l0.00001,-0.00001z" fill="#69B242" id="svg_89" stroke="null"/>
  <path d="m239.84824,398.02619c1.00887,0 2.01774,0 3.05718,0c0,1.00887 0,2.01774 0,3.05718c0.9484,-0.06232 1.89679,-0.12463 2.87395,-0.18884c4.29565,-0.27262 8.59241,-0.51984 12.88962,-0.76653c1.49261,-0.09852 2.98523,-0.19705 4.52306,-0.29855c1.43351,-0.07881 2.86701,-0.15764 4.34394,-0.23884c1.32082,-0.08005 2.64163,-0.1601 4.00247,-0.24257c3.46731,0.20674 3.46731,0.20674 8.05308,3.26392c-13.61972,0 -27.23945,0 -41.27189,0c0.50443,-1.5133 1.00887,-3.02661 1.52859,-4.58577z" fill="#538835" id="svg_90" stroke="null"/>
  <path d="m277.48973,390.19217c1.19803,0.06305 2.39606,0.12611 3.6304,0.19107c0.50443,1.5133 1.00887,3.02661 1.52859,4.58577c1.00887,1.00887 2.01774,2.01774 3.05718,3.05718c0,1.00887 0,2.01774 0,3.05718c-2.01774,0.50443 -4.03547,1.00887 -6.11435,1.52859c-2.01774,-2.52217 -4.03547,-5.04434 -6.11435,-7.64294c1.5133,0 3.02661,0 4.58577,0c0.50443,-1.00887 1.00887,-2.01774 1.52859,-3.05718c-3.02661,0.50443 -6.05321,1.00887 -9.17153,1.52859c3.05718,-3.05718 3.05718,-3.05718 7.06972,-3.24825l-0.00002,-0.00001z" fill="#60A83E" id="svg_91" stroke="null"/>
  <path d="m275.00577,332.29688c0,0.50443 0,1.00887 0,1.52859c-3.02661,0.50443 -6.05321,1.00887 -9.17153,1.52859c0,0.50443 0,1.00887 0,1.52859c-5.54878,0 -11.09755,0 -16.81447,0c0,-1.00887 0,-2.01774 0,-3.05718c8.81011,-4.04789 16.67588,-2.75447 25.98601,-1.52859l-0.00001,0z" fill="#559537" id="svg_92" stroke="null"/>
  <path d="m45.71749,336.88265c2.01774,0 4.03547,0 6.11435,0c-0.50443,1.00887 -1.00887,2.01774 -1.52859,3.05718c-1.00887,-0.50443 -2.01774,-1.00887 -3.05718,-1.52859c0,1.00887 0,2.01774 0,3.05718c2.01774,0 4.03547,0 6.11435,0c-0.86168,4.99778 -2.2923,7.3766 -6.11435,10.70012c-3.92369,-5.88554 -2.80173,-8.53824 -1.52859,-15.28589l0.00001,0z" fill="#6CAC43" id="svg_93" stroke="null"/>
  <path d="m276.53436,330.76829c1.5133,0.50443 3.02661,1.00887 4.58577,1.52859c0,1.00887 0,2.01774 0,3.05718c3.02661,0 6.05321,0 9.17153,0c0,0.50443 0,1.00887 0,1.52859c-8.07095,0 -16.1419,0 -24.45742,0c-0.50443,-1.00887 -1.00887,-2.01774 -1.52859,-3.05718c1.73398,-0.22068 3.46799,-0.44138 5.25452,-0.66876c5.15176,-0.2663 5.15176,-0.2663 6.97419,-2.38842z" fill="#6DB744" id="svg_94" stroke="null"/>
  <path d="m447.73628,306.31088c-0.50443,3.53104 -1.00887,7.06208 -1.52859,10.70012c-1.00887,0 -2.01774,0 -3.05718,0c-0.50443,1.00887 -1.00887,2.01774 -1.52859,3.05718c-3.05718,-10.31797 -3.05718,-10.31797 -3.05718,-13.7573c4.58577,-1.52859 4.58577,-1.52859 9.17153,0l0.00001,0z" fill="#131815" id="svg_95" stroke="null"/>
  <path d="m386.59274,320.06817c2.01774,0 4.03547,0 6.11435,0c-0.28374,1.10346 -0.56749,2.2069 -0.85983,3.34379c-0.7015,4.50966 -0.23737,7.55328 0.85983,11.9421c0,0.50443 0,1.00887 0,1.52859c-2.52217,0 -5.04434,0 -7.64294,0c0,-1.5133 0,-3.02661 0,-4.58577c1.00887,0 2.01774,0 3.05718,0c-0.50443,-4.03547 -1.00887,-8.07095 -1.52859,-12.22871z" fill="#6AB344" id="svg_96" stroke="null"/>
  <path d="m409.52156,394.96901c-0.50443,1.5133 -1.00887,3.02661 -1.52859,4.58577c-2.01774,-0.50443 -4.03547,-1.00887 -6.11435,-1.52859c0.50443,3.02661 1.00887,6.05321 1.52859,9.17153c-2.01774,-1.5133 -4.03547,-3.02661 -6.11435,-4.58577c0,1.00887 0,2.01774 0,3.05718c-1.00887,0 -2.01774,0 -3.05718,0c3.2365,-7.82153 6.7327,-10.70012 15.28589,-10.70012l-0.00001,0z" fill="#72C047" id="svg_98" stroke="null"/>
  <path d="m47.24608,313.95382c2.01774,0.50443 4.03547,1.00887 6.11435,1.52859c0,1.00887 0,2.01774 0,3.05718c2.01774,1.00887 4.03547,2.01774 6.11435,3.05718c-3.78326,2.26995 -3.78326,2.26995 -7.64294,4.58577c-4.58577,-8.78938 -4.58577,-8.78938 -4.58577,-12.22871l0.00001,-0.00001z" fill="#639E3C" id="svg_99" stroke="null"/>
  <path d="m446.20769,315.48241c1.5133,0 3.02661,0 4.58577,0c1.00887,3.53104 2.01774,7.06208 3.05718,10.70012c-2.01774,0.50443 -4.03547,1.00887 -6.11435,1.52859c-2.18504,-3.59889 -3.18957,-5.31998 -2.48396,-9.55368c0.31527,-0.88276 0.63054,-1.76552 0.95537,-2.67503l-0.00001,0z" fill="#66AD40" id="svg_100" stroke="null"/>
  <path d="m411.05015,313.95382c1.5133,1.00887 3.02661,2.01774 4.58577,3.05718c-1.00887,0 -2.01774,0 -3.05718,0c-0.50443,1.5133 -1.00887,3.02661 -1.52859,4.58577c-1.5133,0 -3.02661,0 -4.58577,0c-0.50443,2.52217 -1.00887,5.04434 -1.52859,7.64294c-2.01774,-2.52217 -4.03547,-5.04434 -6.11435,-7.64294c6.05321,-3.78326 6.05321,-3.78326 12.22871,-7.64294l0,-0.00001z" fill="#4E8933" id="svg_101" stroke="null"/>
  <path d="m455.37922,312.42523c2.01774,0.50443 4.03547,1.00887 6.11435,1.52859c1.71966,7.2608 1.71966,7.2608 0,10.70012c-3.82693,-1.91347 -6.21269,-4.58548 -9.17153,-7.64294c1.00887,-0.50443 2.01774,-1.00887 3.05718,-1.52859c0,-1.00887 0,-2.01774 0,-3.05718z" fill="#65AE3E" id="svg_102" stroke="null"/>
  <path d="m195.71024,304.68675c1.66109,0.4463 1.66109,0.4463 3.35573,0.90162c0.8473,0.23843 1.69459,0.47686 2.56755,0.7225c-4.43433,2.95621 -5.95653,3.51777 -10.98673,4.01254c-1.92315,0.18916 -3.84631,0.37833 -5.82774,0.57322c0.57322,-2.96164 0.57322,-2.96164 1.52859,-6.11435c3.89336,-1.94667 5.24044,-1.22581 9.3626,-0.09554l0,0.00001z" fill="#62AD38" id="svg_103" stroke="null"/>
  <path d="m328.50637,372.04018c2.01774,0 4.03547,0 6.11435,0c-1.00887,3.02661 -2.01774,6.05321 -3.05718,9.17153c-4.53991,-0.75665 -4.53991,-0.75665 -9.17153,-1.52859c2.67503,-3.82147 2.67503,-3.82147 6.11435,-7.64294l0.00001,0z" fill="#72BF47" id="svg_104" stroke="null"/>
  <path d="m441.62192,358.28289c3.02661,0.75665 3.02661,0.75665 6.11435,1.52859c-0.50443,1.00887 -1.00887,2.01774 -1.52859,3.05718c1.5133,-0.50443 3.02661,-1.00887 4.58577,-1.52859c0.50443,2.01774 1.00887,4.03547 1.52859,6.11435c-8.78938,-1.33751 -8.78938,-1.33751 -12.22871,-3.05718c0.50443,-2.01774 1.00887,-4.03547 1.52859,-6.11435z" fill="#6CB546" id="svg_105" stroke="null"/>
  <path d="m77.81785,350.63994c0.50443,1.00887 1.00887,2.01774 1.52859,3.05718c2.52217,-0.50443 5.04434,-1.00887 7.64294,-1.52859c0.50443,2.01774 1.00887,4.03547 1.52859,6.11435c4.53991,0.50443 9.07982,1.00887 13.7573,1.52859c0,0.50443 0,1.00887 0,1.52859c-5.54878,0 -11.09755,0 -16.81447,0c0,-1.00887 0,-2.01774 0,-3.05718c-1.5133,0 -3.02661,0 -4.58577,0c0,-1.00887 0,-2.01774 0,-3.05718c-1.00887,0 -2.01774,0 -3.05718,0c0,-1.5133 0,-3.02661 0,-4.58577l0,0.00001z" fill="#5A9A39" id="svg_106" stroke="null"/>
  <path d="m417.16451,396.4976c1.00887,0 2.01774,0 3.05718,0c0,1.00887 0,2.01774 0,3.05718c1.00887,0 2.01774,0 3.05718,0c0.50443,3.02661 1.00887,6.05321 1.52859,9.17153c-2.52217,0.50443 -5.04434,1.00887 -7.64294,1.52859c0.28374,-1.41871 0.56749,-2.83744 0.85983,-4.29916c1.03751,-4.89292 1.03751,-4.89292 -0.85983,-9.45814l-0.00001,0z" fill="#599837" id="svg_107" stroke="null"/>
  <path d="m290.29166,324.65394c-0.28661,2.77057 -0.28661,2.77057 -1.52859,6.11435c-3.91701,2.67503 -3.91701,2.67503 -7.64294,4.58577c-1.00887,-2.01774 -2.01774,-4.03547 -3.05718,-6.11435c7.06972,-4.58577 7.06972,-4.58577 12.22871,-4.58577z" fill="#5CA238" id="svg_108" stroke="null"/>
  <path d="m164.9474,298.66793c1.5133,0 3.02661,0 4.58577,0c0,1.00887 0,2.01774 0,3.05718c1.00887,0 2.01774,0 3.05718,0c0,1.00887 0,2.01774 0,3.05718c-2.01774,0 -4.03547,0 -6.11435,0c0,2.01774 0,4.03547 0,6.11435c-5.92328,-2.67503 -5.92328,-2.67503 -7.64294,-6.11435c3.02661,-0.50443 6.05321,-1.00887 9.17153,-1.52859c0,-1.00887 0,-2.01774 0,-3.05718c-1.00887,-0.50443 -2.01774,-1.00887 -3.05718,-1.52859l-0.00001,0z" fill="#589838" id="svg_109" stroke="null"/>
  <path d="m134.37563,297.13934c6.55764,0 13.11529,0 19.87165,0c-1.5133,0.75665 -1.5133,0.75665 -3.05718,1.52859c0,2.01774 0,4.03547 0,6.11435c-2.52217,0.50443 -5.04434,1.00887 -7.64294,1.52859c0.50443,-2.01774 1.00887,-4.03547 1.52859,-6.11435c-3.53104,-0.50443 -7.06208,-1.00887 -10.70012,-1.52859c0,-0.50443 0,-1.00887 0,-1.52859z" fill="#528734" id="svg_110" stroke="null"/>
  <path d="m94.63232,312.42523c2.01774,1.00887 4.03547,2.01774 6.11435,3.05718c0,-1.00887 0,-2.01774 0,-3.05718c2.01774,1.00887 4.03547,2.01774 6.11435,3.05718c-0.50443,2.01774 -1.00887,4.03547 -1.52859,6.11435c-7.2608,-1.14644 -7.2608,-1.14644 -10.70012,-4.58577c0,-1.5133 0,-3.02661 0,-4.58577l0.00001,0.00001z" fill="#68AA41" id="svg_111" stroke="null"/>
  <path d="m44.1889,309.36805c1.5133,0 3.02661,0 4.58577,0c0,1.00887 0,2.01774 0,3.05718c2.01774,0 4.03547,0 6.11435,0c0,1.00887 0,2.01774 0,3.05718c1.5133,0 3.02661,0 4.58577,0c-0.50443,1.00887 -1.00887,2.01774 -1.52859,3.05718c-1.5133,0 -3.02661,0 -4.58577,0c-0.50443,-1.00887 -1.00887,-2.01774 -1.52859,-3.05718c-1.5133,-0.50443 -3.02661,-1.00887 -4.58577,-1.52859c0.50443,2.52217 1.00887,5.04434 1.52859,7.64294c-3.92153,-3.92153 -3.88332,-6.84329 -4.58577,-12.22871l0.00001,0z" fill="#69AF40" id="svg_112" stroke="null"/>
  <path d="m378.94979,394.96901c0.15764,0.91429 0.31527,1.82857 0.47768,2.77057c1.18658,3.77551 2.68785,5.36536 5.63667,7.92955c-0.50443,1.00887 -1.00887,2.01774 -1.52859,3.05718c-1.00887,-0.50443 -2.01774,-1.00887 -3.05718,-1.52859c-3.05102,-1.03735 -6.10777,-2.05812 -9.17153,-3.05718c1.00887,-1.00887 2.01774,-2.01774 3.05718,-3.05718c1.54757,-2.02374 3.07917,-4.05992 4.58577,-6.11435z" fill="#5A9A39" id="svg_113" stroke="null"/>
  <path d="m210.80505,398.02619c1.00887,0.50443 2.01774,1.00887 3.05718,1.52859c3.62892,0.10877 7.26081,0.12854 10.89119,0.09554c1.95863,-0.01379 3.91725,-0.02759 5.93522,-0.04179c1.50936,-0.01775 3.01873,-0.03548 4.57383,-0.05375c0.50443,1.00887 1.00887,2.01774 1.52859,3.05718c-9.07982,0 -18.15963,0 -27.51459,0c-0.50443,-1.00887 -1.00887,-2.01774 -1.52859,-3.05718c1.00887,-0.50443 2.01774,-1.00887 3.05718,-1.52859l-0.00001,0z" fill="#467833" id="svg_114" stroke="null"/>
  <path d="m275.00577,384.26889c2.8661,0.95537 2.8661,0.95537 6.11435,3.05718c1.91074,4.77684 1.91074,4.77684 3.05718,9.17153c-1.00887,-0.50443 -2.01774,-1.00887 -3.05718,-1.52859c0,-1.5133 0,-3.02661 0,-4.58577c-3.53104,0.50443 -7.06208,1.00887 -10.70012,1.52859c0.50443,-1.5133 1.00887,-3.02661 1.52859,-4.58577c1.00887,0 2.01774,0 3.05718,0c0,-1.00887 0,-2.01774 0,-3.05718l0,0.00001z" fill="#6DBD49" id="svg_115" stroke="null"/>
  <path d="m131.31845,298.66793c3.53104,0 7.06208,0 10.70012,0c-2.01774,2.01774 -4.03547,4.03547 -6.11435,6.11435c1.00887,0 2.01774,0 3.05718,0c0.50443,2.52217 1.00887,5.04434 1.52859,7.64294c-4.70221,-2.35111 -6.47712,-6.29925 -9.17153,-10.70012c0,-1.00887 0,-2.01774 0,-3.05718l-0.00001,0.00001z" fill="#6FBA42" id="svg_116" stroke="null"/>
  <path d="m372.83544,416.36925c0.50443,1.00887 1.00887,2.01774 1.52859,3.05718c-0.50443,1.00887 -1.00887,2.01774 -1.52859,3.05718c-4.53991,-0.50443 -9.07982,-1.00887 -13.7573,-1.52859c2.83798,-5.67596 8.11123,-4.73836 13.7573,-4.58577z" fill="#569636" id="svg_117" stroke="null"/>
  <path d="m297.9346,326.18253c8.46603,0.75254 8.46603,0.75254 12.03763,4.6813c0.85123,1.46601 0.85123,1.46601 1.71966,2.96164c-3.53104,0 -7.06208,0 -10.70012,0c0,-1.5133 0,-3.02661 0,-4.58577c-1.00887,-1.00887 -2.01774,-2.01774 -3.05718,-3.05718l0.00001,0.00001z" fill="#69B745" id="svg_118" stroke="null"/>
  <path d="m385.35076,377.10363c0.91429,0.34679 1.82857,0.6936 2.77057,1.0509c-0.50443,1.5133 -1.00887,3.02661 -1.52859,4.58577c-1.5133,0.50443 -3.02661,1.00887 -4.58577,1.52859c-0.50443,1.5133 -1.00887,3.02661 -1.52859,4.58577c-1.00887,0 -2.01774,0 -3.05718,0c-0.35239,-4.34617 -0.54881,-6.81972 1.91074,-10.50905c2.67503,-1.71966 2.67503,-1.71966 6.01882,-1.24198z" fill="#5A9E3B" id="svg_119" stroke="null"/>
  <path d="m339.20649,372.04018c1.00887,0 2.01774,0 3.05718,0c0,1.5133 0,3.02661 0,4.58577c1.00887,0 2.01774,0 3.05718,0c-0.50443,2.01774 -1.00887,4.03547 -1.52859,6.11435c-2.01774,0.50443 -4.03547,1.00887 -6.11435,1.52859c0.50443,-4.03547 1.00887,-8.07095 1.52859,-12.22871l-0.00001,0z" fill="#60A63C" id="svg_120" stroke="null"/>
  <path d="m407.99298,355.22571c7.2608,1.14644 7.2608,1.14644 10.70012,4.58577c-0.50443,1.00887 -1.00887,2.01774 -1.52859,3.05718c-1.5133,0.50443 -3.02661,1.00887 -4.58577,1.52859c-1.00887,1.00887 -2.01774,2.01774 -3.05718,3.05718c0.31527,-1.45025 0.63054,-2.9005 0.95537,-4.39469c0.18916,-1.57636 0.37833,-3.15271 0.57322,-4.77684c-1.00887,-1.00887 -2.01774,-2.01774 -3.05718,-3.05718l0.00001,-0.00001z" fill="#5FA33B" id="svg_121" stroke="null"/>
  <path d="m447.73628,346.05418c4.53991,0.75665 4.53991,0.75665 9.17153,1.52859c-1.00887,1.00887 -2.01774,2.01774 -3.05718,3.05718c-0.98215,3.16225 -0.98215,3.16225 -1.52859,6.11435c-1.00887,0 -2.01774,0 -3.05718,0c0,-1.00887 0,-2.01774 0,-3.05718c-1.5133,-0.50443 -3.02661,-1.00887 -4.58577,-1.52859c1.00887,0 2.01774,0 3.05718,0c0,-2.01774 0,-4.03547 0,-6.11435l0.00001,0z" fill="#64AE40" id="svg_122" stroke="null"/>
  <path d="m392.70709,320.06817c2.01774,0.50443 4.03547,1.00887 6.11435,1.52859c-1.5133,0 -3.02661,0 -4.58577,0c-0.50443,2.01774 -1.00887,4.03547 -1.52859,6.11435c1.00887,0.50443 2.01774,1.00887 3.05718,1.52859c-0.50443,2.52217 -1.00887,5.04434 -1.52859,7.64294c-1.00887,-0.50443 -2.01774,-1.00887 -3.05718,-1.52859c-0.90731,-4.04862 -1.13435,-8.08924 -1.52859,-12.22871c1.00887,0 2.01774,0 3.05718,0c0,-1.00887 0,-2.01774 0,-3.05718l0.00001,0.00001z" fill="#5C9D39" id="svg_123" stroke="null"/>
  <path d="m349.90661,320.06817c2.01774,0 4.03547,0 6.11435,0c0,1.00887 0,2.01774 0,3.05718c1.00887,0 2.01774,0 3.05718,0c0.50443,1.5133 1.00887,3.02661 1.52859,4.58577c-0.50443,1.00887 -1.00887,2.01774 -1.52859,3.05718c-1.00887,0 -2.01774,0 -3.05718,0c0,-1.5133 0,-3.02661 0,-4.58577c-1.5133,1.5133 -3.02661,3.02661 -4.58577,4.58577c0.50443,-3.02661 1.00887,-6.05321 1.52859,-9.17153c-1.00887,-0.50443 -2.01774,-1.00887 -3.05718,-1.52859l0.00001,-0.00001z" fill="#60A33A" id="svg_124" stroke="null"/>
  <path d="m160.36163,309.36805c1.00887,2.01774 2.01774,4.03547 3.05718,6.11435c-6.80986,0.75665 -6.80986,0.75665 -13.7573,1.52859c3.82147,-7.64294 3.82147,-7.64294 10.70012,-7.64294z" fill="#6EB747" id="svg_125" stroke="null"/>
  <path d="m403.40721,292.55358c1.5133,0 3.02661,0 4.58577,0c-0.50443,1.5133 -1.00887,3.02661 -1.52859,4.58577c2.01774,0.50443 4.03547,1.00887 6.11435,1.52859c0,-1.00887 0,-2.01774 0,-3.05718c1.00887,0.50443 2.01774,1.00887 3.05718,1.52859c-0.50443,1.5133 -1.00887,3.02661 -1.52859,4.58577c-3.53104,0 -7.06208,0 -10.70012,0c-0.58421,-2.53157 -1.09134,-5.0819 -1.52859,-7.64294c0.50443,-0.50443 1.00887,-1.00887 1.52859,-1.52859l0,-0.00001z" fill="#68AC40" id="svg_126" stroke="null"/>
  <path d="m244.434,384.26889c1.5133,0 3.02661,0 4.58577,0c0.18916,1.22957 0.37833,2.45912 0.57322,3.72593c0.47291,1.93892 0.47291,1.93892 0.95537,3.91701c1.00887,0.50443 2.01774,1.00887 3.05718,1.52859c-0.50443,1.00887 -1.00887,2.01774 -1.52859,3.05718c-1.00887,0 -2.01774,0 -3.05718,0c-0.40985,-0.97735 -0.81971,-1.95468 -1.24198,-2.96164c-1.64198,-3.65917 -1.64198,-3.65917 -6.40096,-4.6813c1.00887,-1.5133 2.01774,-3.02661 3.05718,-4.58577l-0.00001,0z" fill="#70BE48" id="svg_127" stroke="null"/>
  <path d="m446.20769,367.45442c3.78326,1.5133 3.78326,1.5133 7.64294,3.05718c-0.50443,1.5133 -1.00887,3.02661 -1.52859,4.58577c-1.5133,-0.50443 -3.02661,-1.00887 -4.58577,-1.52859c-0.50443,1.00887 -1.00887,2.01774 -1.52859,3.05718c-1.00887,0 -2.01774,0 -3.05718,0c1.00887,-3.02661 2.01774,-6.05321 3.05718,-9.17153l0.00001,-0.00001z" fill="#71C148" id="svg_128" stroke="null"/>
  <path d="m420.22168,356.7543c3.05718,3.05718 3.05718,3.05718 3.24825,7.06972c-0.06305,1.19803 -0.12611,2.39606 -0.19107,3.6304c-1.00887,-0.50443 -2.01774,-1.00887 -3.05718,-1.52859c-0.50443,1.00887 -1.00887,2.01774 -1.52859,3.05718c1.00887,0.50443 2.01774,1.00887 3.05718,1.52859c-1.5133,0.50443 -3.02661,1.00887 -4.58577,1.52859c-0.50443,-2.52217 -1.00887,-5.04434 -1.52859,-7.64294c1.00887,0 2.01774,0 3.05718,0c0.50443,-2.52217 1.00887,-5.04434 1.52859,-7.64294l0,-0.00001z" fill="#548B34" id="svg_129" stroke="null"/>
  <path d="m377.4212,327.71112c0.50443,1.00887 1.00887,2.01774 1.52859,3.05718c1.5133,0 3.02661,0 4.58577,0c-0.50443,2.01774 -1.00887,4.03547 -1.52859,6.11435c-2.52217,-0.50443 -5.04434,-1.00887 -7.64294,-1.52859c0,-2.01774 0,-4.03547 0,-6.11435c1.00887,-0.50443 2.01774,-1.00887 3.05718,-1.52859l-0.00001,0z" fill="#5D9F3A" id="svg_130" stroke="null"/>
  <path d="m247.49118,393.44042c0.50443,1.00887 1.00887,2.01774 1.52859,3.05718c3.09483,0.99684 3.09483,0.99684 6.11435,1.52859c0,1.00887 0,2.01774 0,3.05718c-4.03547,0 -8.07095,0 -12.22871,0c0,-1.00887 0,-2.01774 0,-3.05718c1.5133,0 3.02661,0 4.58577,0c0,-1.5133 0,-3.02661 0,-4.58577z" fill="#5FA73D" id="svg_131" stroke="null"/>
  <path d="m154.24728,226.82427c0,4.58577 0,4.58577 -2.34065,7.37425c-0.99311,0.9399 -1.98622,1.8798 -3.00941,2.84819c-0.99311,0.95173 -1.9862,1.90344 -3.00941,2.88402c-0.77241,0.71922 -1.54484,1.43842 -2.34065,2.17943c-1.00887,-0.50443 -2.01774,-1.00887 -3.05718,-1.52859c4.58577,-4.58577 9.17153,-9.17153 13.7573,-13.7573z" fill="#ACB9B9" id="svg_132" stroke="null"/>
  <path d="m264.30565,394.96901c1.5133,0 3.02661,0 4.58577,0c0.50443,2.01774 1.00887,4.03547 1.52859,6.11435c-4.03547,0 -8.07095,0 -12.22871,0c0.50443,-1.00887 1.00887,-2.01774 1.52859,-3.05718c1.5133,0 3.02661,0 4.58577,0c0,-1.00887 0,-2.01774 0,-3.05718l-0.00001,0.00001z" fill="#65AD40" id="svg_135" stroke="null"/>
  <path d="m371.30685,404.14054c3.53104,0.50443 7.06208,1.00887 10.70012,1.52859c-1.00887,2.52217 -2.01774,5.04434 -3.05718,7.64294c-2.57969,-2.5152 -5.12693,-5.06405 -7.64294,-7.64294c0,-0.50443 0,-1.00887 0,-1.52859z" fill="#6BB143" id="svg_137" stroke="null"/>
  <path d="m438.56475,349.11136c1.5133,1.5133 3.02661,3.02661 4.58577,4.58577c-2.00627,3.05718 -2.00627,3.05718 -4.58577,6.11435c-1.5133,0 -3.02661,0 -4.58577,0c0.50443,-1.5133 1.00887,-3.02661 1.52859,-4.58577c0.50443,0 1.00887,0 1.52859,0c0.50443,-2.01774 1.00887,-4.03547 1.52859,-6.11435z" fill="#65A83E" id="svg_138" stroke="null"/>
  <path d="m100.74668,310.89664c4.53991,0 9.07982,0 13.7573,0c-2.01774,2.01774 -4.03547,4.03547 -6.11435,6.11435c-3.05718,-1.52859 -3.05718,-1.52859 -7.64294,-6.11435l-0.00001,0z" fill="#558D37" id="svg_139" stroke="null"/>
  <path d="m224.56235,391.91183c1.5133,0.50443 3.02661,1.00887 4.58577,1.52859c0,2.52217 0,5.04434 0,7.64294c-3.02661,0 -6.05321,0 -9.17153,0c0.50443,-1.00887 1.00887,-2.01774 1.52859,-3.05718c1.00887,0 2.01774,0 3.05718,0c0,-2.01774 0,-4.03547 0,-6.11435l-0.00001,0z" fill="#5FA93E" id="svg_141" stroke="null"/>
  <path d="m363.66391,381.21171c2.01774,0 4.03547,0 6.11435,0c0.50443,1.5133 1.00887,3.02661 1.52859,4.58577c-1.5133,0 -3.02661,0 -4.58577,0c-0.50443,2.01774 -1.00887,4.03547 -1.52859,6.11435c-1.00887,0 -2.01774,0 -3.05718,0c0.50443,-3.53104 1.00887,-7.06208 1.52859,-10.70012l0.00001,0z" fill="#75CB48" id="svg_142" stroke="null"/>
  <path d="m65.58914,352.16853c2.01774,2.01774 4.03547,4.03547 6.11435,6.11435c-3.53104,0.50443 -7.06208,1.00887 -10.70012,1.52859c0.57322,-2.96164 0.57322,-2.96164 1.52859,-6.11435c1.00887,-0.50443 2.01774,-1.00887 3.05718,-1.52859z" fill="#5C9F38" id="svg_143" stroke="null"/>
  <path d="m424.80745,323.12535c1.00887,0 2.01774,0 3.05718,0c0,2.52217 0,5.04434 0,7.64294c1.00887,0 2.01774,0 3.05718,0c0,1.00887 0,2.01774 0,3.05718c-4.53991,-0.75665 -4.53991,-0.75665 -9.17153,-1.52859c0,-1.00887 0,-2.01774 0,-3.05718c1.5133,0 3.02661,0 4.58577,0c-0.50443,-2.01774 -1.00887,-4.03547 -1.52859,-6.11435l-0.00001,0z" fill="#4D9034" id="svg_144" stroke="null"/>
  <path d="m323.92061,411.78349c2.52217,0.50443 5.04434,1.00887 7.64294,1.52859c-2.26995,3.78326 -2.26995,3.78326 -4.58577,7.64294c-1.5133,-0.50443 -3.02661,-1.00887 -4.58577,-1.52859c0.50443,-2.52217 1.00887,-5.04434 1.52859,-7.64294l0.00001,0z" fill="#569334" id="svg_146" stroke="null"/>
  <path d="m239.84824,398.02619c1.00887,0 2.01774,0 3.05718,0c0,1.00887 0,2.01774 0,3.05718c4.53991,0 9.07982,0 13.7573,0c0,0.50443 0,1.00887 0,1.52859c-6.05321,0 -12.10642,0 -18.34306,0c0.50443,-1.5133 1.00887,-3.02661 1.52859,-4.58577l-0.00001,0z" fill="#4E7F32" id="svg_147" stroke="null"/>
  <path d="m285.70589,396.4976c3.02661,1.00887 6.05321,2.01774 9.17153,3.05718c0,1.00887 0,2.01774 0,3.05718c-4.03547,0 -8.07095,0 -12.22871,0c1.00887,-2.01774 2.01774,-4.03547 3.05718,-6.11435l0,-0.00001z" fill="#487B30" id="svg_148" stroke="null"/>
  <path d="m444.6791,344.52559c0.50443,2.01774 1.00887,4.03547 1.52859,6.11435c-1.5133,0 -3.02661,0 -4.58577,0c0,-1.00887 0,-2.01774 0,-3.05718c-2.01774,-1.00887 -4.03547,-2.01774 -6.11435,-3.05718c3.80761,-1.9038 5.21373,-1.18735 9.17153,0l0,0.00001z" fill="#5EA63D" id="svg_149" stroke="null"/>
  <path d="m412.57874,329.2397c-1.00887,3.02661 -2.01774,6.05321 -3.05718,9.17153c-2.52217,0 -5.04434,0 -7.64294,0c1.5133,-1.00887 3.02661,-2.01774 4.58577,-3.05718c-0.50443,-1.00887 -1.00887,-2.01774 -1.52859,-3.05718c4.58577,-3.05718 4.58577,-3.05718 7.64294,-3.05718l0,0.00001z" fill="#4E8932" id="svg_150" stroke="null"/>
  <path d="m36.54596,320.06817c7.45187,2.67503 7.45187,2.67503 9.17153,6.11435c-1.00887,1.00887 -2.01774,2.01774 -3.05718,3.05718c-0.50443,-1.00887 -1.00887,-2.01774 -1.52859,-3.05718c-1.5133,0 -3.02661,0 -4.58577,0c0,-2.01774 0,-4.03547 0,-6.11435l0.00001,0z" fill="#6DB945" id="svg_151" stroke="null"/>
  <path d="m325.44919,307.83946c3.53104,0 7.06208,0 10.70012,0c-2.52217,2.52217 -5.04434,5.04434 -7.64294,7.64294c-3.05718,-5.92328 -3.05718,-5.92328 -3.05718,-7.64294z" fill="#6FE4D5" id="svg_152" stroke="null"/>
  <path d="m169.53316,300.19652c4.53991,0.50443 9.07982,1.00887 13.7573,1.52859c-2.26995,2.26995 -2.26995,2.26995 -4.58577,4.58577c-3.34379,-0.47768 -3.34379,-0.47768 -6.11435,-1.52859c0,-1.00887 0,-2.01774 0,-3.05718c-1.00887,-0.50443 -2.01774,-1.00887 -3.05718,-1.52859z" fill="#65A941" id="svg_153" stroke="null"/>
  <path d="m160.36163,298.66793c2.52217,0.50443 5.04434,1.00887 7.64294,1.52859c0,1.00887 0,2.01774 0,3.05718c-3.53104,0.50443 -7.06208,1.00887 -10.70012,1.52859c1.00887,-2.01774 2.01774,-4.03547 3.05718,-6.11435l0,-0.00001z" fill="#6CB644" id="svg_154" stroke="null"/>
  <path d="m119.08974,190.13815c6.73522,3.25099 11.24359,7.56952 16.52786,12.80193c0.933,0.88276 1.86601,1.76552 2.82729,2.67503c1.31084,1.29458 1.31084,1.29458 2.64816,2.61532c0.80161,0.78103 1.6032,1.56206 2.4291,2.36677c1.5536,2.46977 1.5536,2.46977 1.50733,5.33214c-2.14106,4.69717 -5.31273,7.59323 -8.98793,11.20543c-0.74425,0.73777 -1.48852,1.47555 -2.25534,2.23568c-2.37245,2.34684 -4.76036,4.67721 -7.14906,7.00749c-1.61422,1.59121 -3.22742,3.18348 -4.83954,4.77684c-3.94787,3.89741 -7.90979,7.78019 -11.8794,11.65549c2.15487,4.97329 4.69332,8.00305 8.70579,11.61966c1.0936,1.001 2.1872,2.00198 3.31393,3.0333c1.71133,1.54285 1.71133,1.54285 3.45724,3.11688c2.27185,2.05048 4.53723,4.10814 6.79505,6.17406c1.00518,0.90567 2.01035,1.81133 3.04599,2.74444c2.1966,2.35484 2.1966,2.35484 2.1966,5.41201c-1.03252,0.27784 -2.06503,0.55567 -3.12882,0.84192c-1.36356,0.38424 -2.72711,0.76848 -4.13197,1.16436c-1.34779,0.37241 -2.69557,0.74484 -4.08419,1.12853c-4.03213,1.24742 -4.03213,1.24742 -7.11751,4.00061c-2.93775,2.03613 -2.93775,2.03613 -5.98299,1.75549c-3.22525,-1.31144 -6.27914,-2.80728 -9.37454,-4.40067c-11.22325,-4.99014 -20.25063,-4.01306 -31.62268,0.09554c-13.97008,4.76863 -28.50665,3.59481 -43.08709,3.05718c-0.91225,-6.32875 -1.43304,-10.16498 2.29288,-15.5307c3.19252,-3.38582 6.4978,-6.55497 9.93583,-9.69101c1.16651,-1.11133 2.33301,-2.22266 3.53486,-3.36766c2.87228,-2.72867 5.769,-5.42472 8.69385,-8.09675c7.3229,3.33627 12.10275,8.89023 17.56383,14.62609c6.632,6.83424 12.47801,11.50258 22.17947,12.88851c-1.75406,-11.19327 -8.23399,-16.77708 -16.24125,-24.36188c-1.22562,-1.19114 -2.45123,-2.38227 -3.714,-3.6095c-3.0127,-2.92303 -6.04176,-5.82667 -9.08793,-8.71474c6.38611,-7.62144 13.0408,-14.77693 20.09855,-21.77641c1.00488,-1.00272 2.00976,-2.00545 3.04509,-3.03854c3.17304,-3.16456 6.35138,-6.32374 9.52994,-9.48275c2.16784,-2.16017 4.33534,-4.32069 6.50248,-6.48157c5.28033,-5.26359 10.56541,-10.52234 15.85313,-15.7785l-0.00001,-0.00002z" fill="#A3AFAF" id="svg_6" stroke="null"/>
 </g>

</svg>